<?xml version="1.0" encoding="UTF-8"?>
<svg width="24px" height="24px" viewBox="0 0 24 24" version="1.1" xmlns="http://www.w3.org/2000/svg" xmlns:xlink="http://www.w3.org/1999/xlink">
    <title>icn_note</title>
    <g id="icn_note" stroke="none" stroke-width="1" fill="none" fill-rule="evenodd">
        <g id="icn_copy">
            <rect id="矩形" x="0" y="0" width="24" height="24"></rect>
            <path d="M16,4 C19.3137085,4 22,6.6862915 22,10 L22,14 C22,16.6887547 19.8776933,18.8818181 17.2168896,18.9953805 L17,19 L17,22.7928932 C17,23.0690356 16.7761424,23.2928932 16.5,23.2928932 C16.3673918,23.2928932 16.2402148,23.2402148 16.1464466,23.1464466 L12,19 L8,19 C4.6862915,19 2,16.3137085 2,13 L2,10 C2,6.6862915 4.6862915,4 8,4 L16,4 Z M6.5,10 C5.67157288,10 5,10.6715729 5,11.5 C5,12.3284271 5.67157288,13 6.5,13 C7.32842712,13 8,12.3284271 8,11.5 C8,10.6715729 7.32842712,10 6.5,10 Z M11.5,10 C10.6715729,10 10,10.6715729 10,11.5 C10,12.3284271 10.6715729,13 11.5,13 C12.3284271,13 13,12.3284271 13,11.5 C13,10.6715729 12.3284271,10 11.5,10 Z M16.5,10 C15.6715729,10 15,10.6715729 15,11.5 C15,12.3284271 15.6715729,13 16.5,13 C17.3284271,13 18,12.3284271 18,11.5 C18,10.6715729 17.3284271,10 16.5,10 Z" id="形状结合" fill="#9F7ADF"></path>
        </g>
    </g>
</svg>