<svg width="24" height="24" viewBox="0 0 24 24" xmlns="http://www.w3.org/2000/svg"><path d="M22.882 12.111a1.111 1.111 0 0 1 1.021 1.55l-.054.108-2.6 4.597a3 3 0 0 1-2.41 1.516l-.2.007H5.691a1.111 1.111 0 0 1-1.021-1.55l.054-.108.318-.565h12.429a3 3 0 0 0 2.463-1.287l.107-.165 2.47-4.103h.37zm-2.937-4.445h.715a1.111 1.111 0 0 1 1.02 1.55l-.053.109-2.6 4.596a3 3 0 0 1-2.41 1.517l-.201.006H3.469a1.111 1.111 0 0 1-1.02-1.549l.053-.109.32-.564h12.815a2 2 0 0 0 1.654-.875l.087-.14 2.567-4.541zm-1.644-4.444a1.111 1.111 0 0 1 .968 1.658l-3.142 5.556a1.111 1.111 0 0 1-.968.564H1.111a1.111 1.111 0 0 1-.967-1.658l3.142-5.556c.197-.348.567-.564.967-.564h14.048z" fill="#9F7ADF" fill-rule="evenodd"/></svg>
