<?xml version="1.0" encoding="UTF-8"?>
<svg width="24px" height="24px" viewBox="0 0 24 24" version="1.1" xmlns="http://www.w3.org/2000/svg" xmlns:xlink="http://www.w3.org/1999/xlink">
    <title>icn_note_remove</title>
    <g id="icn_note_remove" stroke="none" stroke-width="1" fill="none" fill-rule="evenodd">
        <g>
            <rect id="矩形" x="0" y="0" width="24" height="24"></rect>
            <path d="M16,4 C16.7011506,4 17.3742113,4.12026719 17.9996782,4.34129768 L9.536,19 L8,19 C4.6862915,19 2,16.3137085 2,13 L2,10 C2,6.6862915 4.6862915,4 8,4 L16,4 Z M22,10 L22,13 C22,16.3137085 19.3137085,19 16,19 L11.845,19 L15.5194704,12.6351806 C15.7824075,12.8624981 16.1251461,13 16.5,13 C17.3284271,13 18,12.3284271 18,11.5 C18,10.8445494 17.5795982,10.2872888 16.9937283,10.0831519 L19.747486,5.31395758 C21.1206205,6.41349858 22,8.10405424 22,10 Z M6.5,10 C5.67157288,10 5,10.6715729 5,11.5 C5,12.3284271 5.67157288,13 6.5,13 C7.32842712,13 8,12.3284271 8,11.5 C8,10.6715729 7.32842712,10 6.5,10 Z M11.5,10 C10.6715729,10 10,10.6715729 10,11.5 C10,12.3284271 10.6715729,13 11.5,13 C12.3284271,13 13,12.3284271 13,11.5 C13,10.6715729 12.3284271,10 11.5,10 Z" id="形状结合" fill="#9F7ADF"></path>
            <path d="M19,1.60769515 C19.4782926,1.88383753 19.6421678,2.49542793 19.3660254,2.97372056 L8.3660254,22.0262794 C8.08988303,22.5045721 7.47829262,22.6684472 7,22.3923048 C6.52170738,22.1161625 6.35783222,21.5045721 6.6339746,21.0262794 L17.6339746,1.97372056 C17.910117,1.49542793 18.5217074,1.33155278 19,1.60769515 Z" id="路径" fill="#9F7ADF" fill-rule="nonzero"></path>
        </g>
    </g>
</svg>