<svg width="24" height="24" viewBox="0 0 24 24" xmlns="http://www.w3.org/2000/svg"><path d="M19.813 1.089c.527.224.791.807.63 1.343l-.042.114-9.603 16.72-.357.628h-.003l-.888 1.547a1.111 1.111 0 0 1-2.087-.756l.041-.114.389-.677h-2.2a1.111 1.111 0 0 1-1.021-1.549l.054-.109.318-.564 4.125-.001 1.277-2.223H3.47A1.111 1.111 0 0 1 2.449 13.9l.054-.108.319-.566h8.9l1.276-2.222H1.111a1.111 1.111 0 0 1-.967-1.658l3.143-5.558c.197-.348.567-.564.967-.564h13.212l.889-1.546c.24-.565.893-.828 1.458-.588zm3.076 11.026a1.111 1.111 0 0 1 1.021 1.549l-.054.109-2.6 4.598a3 3 0 0 1-2.41 1.517l-.202.007-5.663-.001 1.263-2.223h3.233a3 3 0 0 0 2.464-1.287l.106-.165 2.47-4.104h.372zm-2.223-4.446a1.111 1.111 0 0 1 1.021 1.55l-.054.108-2.6 4.599a3 3 0 0 1-2.41 1.516l-.202.007-.914-.001 1.677-2.949c.04-.047.076-.097.111-.148l.088-.14 2.568-4.543h.715z" fill="#9F7ADF" fill-rule="evenodd"/></svg>
