<?xml version="1.0" encoding="UTF-8" standalone="no"?>
<svg width="36px" height="36px" viewBox="0 0 36 36" version="1.1" xmlns="http://www.w3.org/2000/svg" xmlns:xlink="http://www.w3.org/1999/xlink">
    <!-- Generator: Sketch 39.1 (31720) - http://www.bohemiancoding.com/sketch -->
    <title>Group 2</title>
    <desc>Created with Sketch.</desc>
    <defs>
        <circle id="path-1" cx="18" cy="18" r="18"></circle>
    </defs>
    <g id="Page-1" stroke="none" stroke-width="1" fill="none" fill-rule="evenodd">
        <g id="Group-2">
            <g id="Oval-71-Copy-8-Clipped">
                <mask id="mask-2" fill="white">
                    <use xlink:href="#path-1"></use>
                </mask>
                <g id="path-1"></g>
                <g id="Oval-71-Copy-8" mask="url(#mask-2)" stroke="#5C7DEC" stroke-width="2" fill="#FFFFFF">
                    <circle id="path-1" cx="18" cy="18" r="18"></circle>
                </g>
            </g>
            <path d="M19.5955417,17.6904667 C20.8840992,16.699613 21.7130915,15.1530795 21.7130915,13.4151052 C21.7130915,10.4244606 19.258568,8 16.2307391,8 C13.2029611,8 10.7484376,10.4244606 10.7484376,13.4151052 C10.7484376,15.1492136 11.5737166,16.6928221 12.8573653,17.6839301 C10.0808233,18.918288 8.12564345,21.6346534 8.0241622,24.8129747 C8.00852037,24.8789502 8,24.9476471 8,25.0183279 L8.00834231,25.1018529 C8.00834231,25.5978901 8.41543723,25.9999491 8.9176295,25.9999491 C9.41982176,25.9999491 23.0209278,26 23.5231201,26 C24.0252869,26 24.4324073,25.597941 24.4324073,25.1019037 L24.4240904,25.0183788 C24.4240904,24.9790834 24.4212673,24.9405002 24.4163077,24.9025783 C24.349213,21.6914473 22.3902181,18.9395761 19.5955417,17.6904667 Z M29.8720562,24.9025528 C29.805572,21.7205182 27.8811672,18.9897318 25.1269307,17.7250567 C25.1266763,17.6944089 25.1251249,17.6640917 25.1226578,17.6340034 C26.3701904,16.6414202 27.1688655,15.1206259 27.1688655,13.4151052 C27.1688655,10.5609643 24.933277,8.22264831 22.0973977,8.01510771 L22.0108905,8.01510771 C21.5508168,8.03418314 21.2273296,8.45086666 21.2273296,8.90987217 L21.2352395,8.98917506 C21.2352395,9.46051599 21.6221145,9.84253312 22.0992798,9.84253312 C22.2393442,9.84253312 22.1966789,9.84253309 22.3938693,9.84253309 C23.9658112,10.2430915 25.317634,11.72515 25.317634,13.4030241 C25.317634,14.743899 24.5757782,15.9134767 23.4754824,16.5336568 C23.0856317,16.6800798 22.7946425,16.9675082 22.6684904,17.3308314 C22.6684904,17.3308314 22.6121034,17.4513117 22.6300089,17.4660634 C22.6106028,17.552971 22.6000732,17.6431596 22.6000732,17.7358407 L22.6116202,17.851743 C22.6116202,18.5409507 23.1773717,19.0997842 23.875227,19.0997842 C23.9807268,19.0997842 24.0264454,19.0997845 24.1680547,19.1604706 C26.2708528,20.1455762 27.9945515,22.4556341 28.0707769,24.8889966 C28.0645964,24.9312423 28.0612646,24.9744036 28.0612646,25.0183534 L28.0695815,25.1018783 C28.0695815,25.5979155 28.4766764,25.9999745 28.9788687,25.9999745 C29.4810609,25.9999745 29.8881558,25.5979155 29.8881558,25.1018783 L29.879839,25.0183279 C29.879839,24.979058 29.8770158,24.9404748 29.8720562,24.9025528 Z" id="Combined-Shape" fill="#5B97FF"></path>
        </g>
    </g>
</svg>