<?xml version="1.0" encoding="UTF-8"?>
<svg width="27px" height="30px" viewBox="0 0 27 30" version="1.1" xmlns="http://www.w3.org/2000/svg" xmlns:xlink="http://www.w3.org/1999/xlink">
    <!-- Generator: Sketch 59 (86127) - https://sketch.com -->
    <title>第二名备份</title>
    <desc>Created with Sketch.</desc>
    <defs>
        <filter x="-50.0%" y="-50.0%" width="200.0%" height="200.0%" filterUnits="objectBoundingBox" id="filter-1">
            <feOffset dx="0" dy="2" in="SourceAlpha" result="shadowOffsetOuter1"></feOffset>
            <feGaussianBlur stdDeviation="2" in="shadowOffsetOuter1" result="shadowBlurOuter1"></feGaussianBlur>
            <feColorMatrix values="0 0 0 0 0.529411765   0 0 0 0 0.592156863   0 0 0 0 0.8  0 0 0 0.297475962 0" type="matrix" in="shadowBlurOuter1" result="shadowMatrixOuter1"></feColorMatrix>
            <feMerge>
                <feMergeNode in="shadowMatrixOuter1"></feMergeNode>
                <feMergeNode in="SourceGraphic"></feMergeNode>
            </feMerge>
        </filter>
    </defs>
    <g id="舞台" stroke="none" stroke-width="1" fill="none" fill-rule="evenodd">
        <g id="第二名备份" filter="url(#filter-1)" transform="translate(1.000000, 2.000000)">
            <g id="编组-10" transform="translate(10.000000, 9.000000)">
                <polygon id="蒙版" fill="#A2A1C6" transform="translate(5.781089, 6.513140) scale(-1, 1) rotate(30.000000) translate(-5.781089, -6.513140) " points="2.28108891 1.01313972 9.28108891 1.01313972 9.28108891 12.0131397 5.73806683 10.2821087 2.28108891 12.0131397"></polygon>
                <path d="M6.06217783,-7.67030883e-12 L9.63033815,6.1775419 C9.4632842,6.66934814 9.1836444,7.13139952 8.79149655,7.52354736 C7.94303604,8.37200788 6.76733826,8.69378797 5.67066717,8.48888764 C5.20591333,9.16748516 4.50776021,9.67425565 3.69173342,9.89351066 L1.34807721e-11,3.5 L6.06217783,-7.67030883e-12 Z" id="形状结合" fill="#9291B3"></path>
            </g>
            <g id="编组-10备份" transform="translate(9.000000, 16.000000) scale(-1, 1) translate(-9.000000, -16.000000) translate(3.000000, 9.000000)">
                <polygon id="蒙版" fill="#A2A1C6" transform="translate(5.781089, 6.513140) scale(-1, 1) rotate(30.000000) translate(-5.781089, -6.513140) " points="2.28108891 1.01313972 9.28108891 1.01313972 9.28108891 12.0131397 5.73806683 10.2821087 2.28108891 12.0131397"></polygon>
                <path d="M6.06217783,2.75797163e-11 L9.63033815,6.1775419 C9.4632842,6.66934814 9.1836444,7.13139952 8.79149655,7.52354736 C7.94303604,8.37200788 6.76733826,8.69378797 5.67066717,8.48888764 C5.20572215,9.1677643 4.5071858,9.67467254 3.69072634,9.89378108 L-2.72830647e-11,3.5 L6.06217783,2.75797163e-11 Z" id="形状结合" fill="#9291B3"></path>
            </g>
            <path d="M12.5,1 C13.7002864,1 14.7594554,1.60419555 15.3899605,2.52504018 C16.4862493,2.31935175 17.6619471,2.64113185 18.5104076,3.48959236 C19.3588682,4.33805287 19.6806482,5.51375065 19.4757479,6.61042174 C20.3958044,7.2405446 21,8.29971358 21,9.5 C21,10.7002864 20.3958044,11.7594554 19.4749598,12.3899605 C19.6806482,13.4862493 19.3588682,14.6619471 18.5104076,15.5104076 C17.6619471,16.3588682 16.4862493,16.6806482 15.3895783,16.4757479 C14.7594554,17.3958044 13.7002864,18 12.5,18 C11.2997136,18 10.2405446,17.3958044 9.61003953,16.4749598 C8.51375065,16.6806482 7.33805287,16.3588682 6.48959236,15.5104076 C5.64113185,14.6619471 5.31935175,13.4862493 5.52425208,12.3895783 C4.60419555,11.7594554 4,10.7002864 4,9.5 C4,8.29971358 4.60419555,7.2405446 5.52504018,6.61003953 C5.31935175,5.51375065 5.64113185,4.33805287 6.48959236,3.48959236 C7.33805287,2.64113185 8.51375065,2.31935175 9.61042174,2.52425208 C10.2405446,1.60419555 11.2997136,1 12.5,1 Z" id="形状" stroke="#D6DCFF" fill="#D1D6FE"></path>
            <text id="2" font-family="Helvetica" font-size="12" font-weight="normal" line-spacing="12" fill="#8E93C2">
                <tspan x="9" y="15.5">2</tspan>
            </text>
        </g>
    </g>
</svg>