<?xml version="1.0" encoding="UTF-8"?>
<svg width="27px" height="30px" viewBox="0 0 27 30" version="1.1" xmlns="http://www.w3.org/2000/svg" xmlns:xlink="http://www.w3.org/1999/xlink">
    <!-- Generator: Sketch 59 (86127) - https://sketch.com -->
    <title>icon/第一名备份</title>
    <desc>Created with Sketch.</desc>
    <defs>
        <filter x="-50.0%" y="-50.0%" width="200.0%" height="200.0%" filterUnits="objectBoundingBox" id="filter-1">
            <feOffset dx="0" dy="2" in="SourceAlpha" result="shadowOffsetOuter1"></feOffset>
            <feGaussianBlur stdDeviation="2" in="shadowOffsetOuter1" result="shadowBlurOuter1"></feGaussianBlur>
            <feColorMatrix values="0 0 0 0 0.992156863   0 0 0 0 0.621293963   0 0 0 0 0.0705882353  0 0 0 0.597328453 0" type="matrix" in="shadowBlurOuter1" result="shadowMatrixOuter1"></feColorMatrix>
            <feMerge>
                <feMergeNode in="shadowMatrixOuter1"></feMergeNode>
                <feMergeNode in="SourceGraphic"></feMergeNode>
            </feMerge>
        </filter>
    </defs>
    <g id="舞台" stroke="none" stroke-width="1" fill="none" fill-rule="evenodd">
        <g id="icon/第一名备份" filter="url(#filter-1)" transform="translate(2.000000, 2.000000)">
            <g id="编组-10" transform="translate(9.000000, 9.000000)">
                <polygon id="蒙版" fill="#FD8512" transform="translate(5.781089, 6.513140) scale(-1, 1) rotate(30.000000) translate(-5.781089, -6.513140) " points="2.28108891 1.01313972 9.28108891 1.01313972 9.28108891 12.0131397 5.73806683 10.2821087 2.28108891 12.0131397"></polygon>
                <path d="M6.06217783,-1.76001436e-11 L9.63033815,6.1775419 C9.4632842,6.66934814 9.1836444,7.13139952 8.79149655,7.52354736 C7.94303604,8.37200788 6.76733826,8.69378797 5.67066717,8.48888764 C5.20591333,9.16748516 4.50776021,9.67425565 3.69173342,9.89351066 L5.28075361e-11,3.5 L6.06217783,-1.76001436e-11 Z" id="形状结合" fill="#CE6500"></path>
            </g>
            <g id="编组-10备份" transform="translate(8.000000, 16.000000) scale(-1, 1) translate(-8.000000, -16.000000) translate(2.000000, 9.000000)">
                <polygon id="蒙版" fill="#FD8512" transform="translate(5.781089, 6.513140) scale(-1, 1) rotate(30.000000) translate(-5.781089, -6.513140) " points="2.28108891 1.01313972 9.28108891 1.01313972 9.28108891 12.0131397 5.73806683 10.2821087 2.28108891 12.0131397"></polygon>
                <path d="M6.06217783,4.09663414e-11 L9.63033815,6.1775419 C9.4632842,6.66934814 9.1836444,7.13139952 8.79149655,7.52354736 C7.94303604,8.37200788 6.76733826,8.69378797 5.67066717,8.48888764 C5.20572215,9.1677643 4.5071858,9.67467254 3.69072634,9.89378108 L-4.85345097e-11,3.5 L6.06217783,4.09663414e-11 Z" id="形状结合" fill="#CE6500"></path>
            </g>
            <path d="M11.5,1 C12.7002864,1 13.7594554,1.60419555 14.3899605,2.52504018 C15.4862493,2.31935175 16.6619471,2.64113185 17.5104076,3.48959236 C18.3588682,4.33805287 18.6806482,5.51375065 18.4757479,6.61042174 C19.3958044,7.2405446 20,8.29971358 20,9.5 C20,10.7002864 19.3958044,11.7594554 18.4749598,12.3899605 C18.6806482,13.4862493 18.3588682,14.6619471 17.5104076,15.5104076 C16.6619471,16.3588682 15.4862493,16.6806482 14.3895783,16.4757479 C13.7594554,17.3958044 12.7002864,18 11.5,18 C10.2997136,18 9.2405446,17.3958044 8.61003953,16.4749598 C7.51375065,16.6806482 6.33805287,16.3588682 5.48959236,15.5104076 C4.64113185,14.6619471 4.31935175,13.4862493 4.52425208,12.3895783 C3.60419555,11.7594554 3,10.7002864 3,9.5 C3,8.29971358 3.60419555,7.2405446 4.52504018,6.61003953 C4.31935175,5.51375065 4.64113185,4.33805287 5.48959236,3.48959236 C6.33805287,2.64113185 7.51375065,2.31935175 8.61042174,2.52425208 C9.2405446,1.60419555 10.2997136,1 11.5,1 Z" id="形状" stroke="#FBC21E" fill="#FEDE28"></path>
            <text id="1" font-family="Helvetica" font-size="12" font-weight="normal" fill="#BA8100">
                <tspan x="8" y="14">1</tspan>
            </text>
        </g>
    </g>
</svg>