<?xml version="1.0" encoding="UTF-8"?>
<svg width="56px" height="56px" viewBox="0 0 56 56" version="1.1" xmlns="http://www.w3.org/2000/svg" xmlns:xlink="http://www.w3.org/1999/xlink">
    <title>icn_microbit_logoup</title>
    <defs>
        <rect id="path-1" x="0" y="0" width="56" height="56"></rect>
    </defs>
    <g id="icn_microbit_logoup" stroke="none" stroke-width="1" fill="none" fill-rule="evenodd">
        <mask id="mask-2" fill="white">
            <use xlink:href="#path-1"></use>
        </mask>
        <g id="矩形"></g>
        <g id="向后倾斜" mask="url(#mask-2)">
            <g transform="translate(28.000000, 28.000000) scale(1, -1) translate(-28.000000, -28.000000) ">
                <path d="M41.1180042,37.0596561 C42.6698935,37.0596561 44.1034412,36.0387434 44.3144136,34.7793838 L46.5389114,18.057387 C46.6629998,16.7980273 45.2773851,15.7771147 43.4495634,15.7771147 L12.5603,15.7771147 C10.7324783,15.7771147 9.34686361,16.7980273 9.47095199,18.057387 L11.6954497,34.7793838 C11.9064221,36.0387434 13.3399698,37.0596561 14.8918591,37.0596561 L41.1180042,37.0596561 Z M14.5034041,25.6582946 C13.3562213,25.6582946 12.3488931,24.9776862 12.2556338,24.1381131 C12.1647609,23.29854 13.042723,22.6179316 14.2144567,22.6179316 C15.3861904,22.6179316 16.3888064,23.29854 16.4554466,24.1381131 C16.5238367,24.9776862 15.6505868,25.6582946 14.5034041,25.6582946 Z M41.5064593,25.6582946 C40.3592766,25.6582946 39.4860267,24.9776862 39.5544168,24.1381131 C39.6210569,23.29854 40.623673,22.6179316 41.7954067,22.6179316 C42.9671404,22.6179316 43.8451025,23.29854 43.7542295,24.1381131 C43.6609703,24.9776862 42.653642,25.6582946 41.5064593,25.6582946 Z M32.9442657,31.7390207 L23.0655976,31.7390207 C20.3376788,31.7390207 17.975951,30.0374996 17.7995327,27.9385669 C17.6330574,25.8396342 19.8558001,24.1381131 22.7551657,24.1381131 L33.2546976,24.1381131 C36.1540633,24.1381131 38.376806,25.8396342 38.2103306,27.9385669 C38.0339123,30.0374996 35.6721846,31.7390207 32.9442657,31.7390207 Z M33.0005319,30.4722028 C34.8398611,30.4722028 36.4123413,29.3378554 36.5094308,27.9385669 C36.6028377,26.5392785 35.1230142,25.404931 33.2074865,25.404931 L22.8023769,25.404931 C20.8868491,25.404931 19.4070256,26.5392785 19.5004326,27.9385669 C19.5975221,29.3378554 21.1700023,30.4722028 23.0093315,30.4722028 L33.0005319,30.4722028 Z M23.7744285,28.5719759 C23.3071401,28.5719759 22.9165885,28.288389 22.9022322,27.9385669 C22.888014,27.5887448 23.2592621,27.3051579 23.731313,27.3051579 C24.2033639,27.3051579 24.5936532,27.5887448 24.603132,27.9385669 C24.6127029,28.288389 24.241717,28.5719759 23.7744285,28.5719759 Z M32.2354348,28.5719759 C31.7681463,28.5719759 31.3971605,28.288389 31.4067313,27.9385669 C31.4162101,27.5887448 31.8064995,27.3051579 32.2785504,27.3051579 C32.7506013,27.3051579 33.1218493,27.5887448 33.1076312,27.9385669 C33.0932749,28.288389 32.7027233,28.5719759 32.2354348,28.5719759 Z M22.3637712,35.5394746 L15.6297906,35.5394746 C14.5783134,35.5394746 13.6258023,34.8588661 13.5044578,34.019293 L12.7909408,28.6986577 L22.3637712,35.5394746 Z M26.8445242,35.5394746 L22.364272,35.5394746 L22.1672245,32.034689 L26.8445242,35.5394746 Z M29.1142308,35.5394746 L26.8447621,35.5394746 L26.8240254,33.7827577 L29.1142308,35.5394746 Z" id="形状结合" fill="#FFFFFF"></path>
                <g id="编组-3" stroke-width="1" fill="none" transform="translate(28.000000, 40.700000) scale(1, -1) translate(-28.000000, -40.700000) translate(24.000000, 33.700000)" stroke-linecap="round" stroke-linejoin="round">
                    <line x1="4" y1="14" x2="4" y2="1" id="路径-4" stroke="#3AFFB3" stroke-width="2"></line>
                    <polygon id="路径-5" stroke="#3AFFB3" stroke-width="2" fill="#3AFFB3" points="4 -1.30451205e-14 0 5 8 5"></polygon>
                </g>
            </g>
        </g>
    </g>
</svg>