<?xml version="1.0" encoding="UTF-8"?>
<svg width="56px" height="56px" viewBox="0 0 56 56" version="1.1" xmlns="http://www.w3.org/2000/svg" xmlns:xlink="http://www.w3.org/1999/xlink">
    <title>icn_microbit_screendown</title>
    <defs>
        <rect id="path-1" x="0" y="0" width="56" height="56"></rect>
    </defs>
    <g id="icn_microbit_screendown" stroke="none" stroke-width="1" fill="none" fill-rule="evenodd">
        <mask id="mask-2" fill="white">
            <use xlink:href="#path-1"></use>
        </mask>
        <g id="矩形"></g>
        <g id="屏幕朝下" mask="url(#mask-2)">
            <g id="编组-3" transform="translate(28.000000, 35.000000) scale(1, -1) translate(-28.000000, -35.000000) translate(24.000000, 28.000000)" stroke="#3AFFB3" stroke-linecap="round" stroke-linejoin="round" stroke-width="2">
                <line x1="4" y1="14" x2="4" y2="1" id="路径-4"></line>
                <polygon id="路径-5" fill="#3AFFB3" points="4 -1.30451205e-14 0 5 8 5"></polygon>
            </g>
            <path d="M22.2304914,13.5966982 L51.1928451,17.6397384 C52.906645,17.9236612 53.4012413,18.840674 52.2975568,19.6762874 L37.6426413,30.0030787 C36.5389568,30.7221592 34.2549344,30.9994856 32.5411344,30.6343176 L3.57878072,25.1965814 C1.86498076,24.9193014 1.37038446,24.2052099 2.47406896,23.5891195 L17.1289845,14.592982 C18.232669,13.8548057 20.5166914,13.4032307 22.2304914,13.5966982 Z M42.8938992,16.8532447 L38.1380427,19.4099628 C38.0407533,19.4622649 38.004284,19.5835328 38.0565861,19.6808222 C38.0850713,19.7338086 38.1358939,19.7711586 38.1949689,19.782521 L43.2045248,20.7460488 C43.2538421,20.7555344 43.304923,20.7461188 43.3476171,20.7196731 L47.858287,17.9256592 C47.9521889,17.8674941 47.9811594,17.7442195 47.9229944,17.6503176 C47.8921473,17.600518 47.8410182,17.5667458 47.7831078,17.5579185 L43.0187384,16.8316865 C42.9758887,16.8251549 42.9320767,16.8327207 42.8938992,16.8532447 Z M37.3894512,16.0144659 L35.0176798,17.1648644 C34.9182964,17.2130691 34.8768079,17.3327128 34.9250126,17.4320961 C34.9527444,17.4892707 35.0059961,17.5298644 35.0684748,17.5414574 L37.6717304,18.0244924 C37.7129175,18.0321347 37.7554646,18.0266516 37.7933685,18.0088167 L40.3967539,16.7838455 C40.4966996,16.736818 40.5395983,16.6176726 40.4925709,16.5177269 C40.4639463,16.4568922 40.406671,16.4145102 40.3401255,16.404922 L37.505256,15.9964596 C37.4657224,15.9907634 37.4253888,15.9970348 37.3894512,16.0144659 Z" id="形状结合" fill="#FFFFFF"></path>
        </g>
    </g>
</svg>