<?xml version="1.0" encoding="UTF-8"?>
<svg width="20px" height="20px" viewBox="0 0 20 20" version="1.1" xmlns="http://www.w3.org/2000/svg" xmlns:xlink="http://www.w3.org/1999/xlink">
    <title>切片</title>
    <g id="硬件连接" stroke="none" stroke-width="1" fill="none" fill-rule="evenodd">
        <g id="自定义点阵图_图案" transform="translate(-474.000000, -319.000000)">
            <g id="keyboard_2" transform="translate(413.000000, 0.000000)">
                <g id="btn_清空" transform="translate(53.000000, 315.000000)">
                    <g id="icn_clear" transform="translate(8.000000, 4.000000)">
                        <rect id="矩形" x="0" y="0" width="20" height="20"></rect>
                        <g id="编组-2" transform="translate(4.000000, 4.000000)" stroke="#B5A4CC">
                            <rect id="矩形" x="8" y="8" width="4" height="4" rx="0.5"></rect>
                            <rect id="矩形" x="4" y="8" width="4" height="4" rx="0.5"></rect>
                            <rect id="矩形" x="0" y="8" width="4" height="4" rx="0.5"></rect>
                            <rect id="矩形" x="8" y="4" width="4" height="4" rx="0.5"></rect>
                            <rect id="矩形" x="4" y="4" width="4" height="4" rx="0.5"></rect>
                            <rect id="矩形" x="0" y="4" width="4" height="4" rx="0.5"></rect>
                            <rect id="矩形" x="8" y="0" width="4" height="4" rx="0.5"></rect>
                            <rect id="矩形" x="4" y="0" width="4" height="4" rx="0.5"></rect>
                            <rect id="矩形" x="0" y="0" width="4" height="4" rx="0.5"></rect>
                        </g>
                        <rect id="矩形" stroke="#B5A4CC" x="3.5" y="3.5" width="13" height="13" rx="1"></rect>
                    </g>
                </g>
            </g>
        </g>
    </g>
</svg>