<?xml version="1.0" encoding="UTF-8"?>
<svg width="56px" height="56px" viewBox="0 0 56 56" version="1.1" xmlns="http://www.w3.org/2000/svg" xmlns:xlink="http://www.w3.org/1999/xlink">
    <title>icn_microbit_drop</title>
    <defs>
        <rect id="path-1" x="0" y="0" width="56" height="56"></rect>
    </defs>
    <g id="icn_microbit_drop" stroke="none" stroke-width="1" fill="none" fill-rule="evenodd">
        <mask id="mask-2" fill="white">
            <use xlink:href="#path-1"></use>
        </mask>
        <g id="矩形"></g>
        <g id="自由落体" mask="url(#mask-2)">
            <line x1="28.5" y1="6.5" x2="28.5" y2="13.5" id="路径-3" stroke="#3AFFB3" stroke-width="2" stroke-linecap="round" stroke-linejoin="round"></line>
            <line x1="32.5097774" y1="2.58673741" x2="32.5097774" y2="15.9332934" id="路径-6" stroke="#3AFFB3" stroke-width="2" stroke-linecap="round" stroke-linejoin="round"></line>
            <line x1="36.5" y1="4.5" x2="36.5" y2="14.5" id="路径-7" stroke="#3AFFB3" stroke-width="2" stroke-linecap="round" stroke-linejoin="round"></line>
            <path d="M42,18 C43.6568542,18 45,19.3431458 45,21 L45,43 C45,44.6568542 43.6568542,46 42,46 L14,46 C12.3431458,46 11,44.6568542 11,43 L11,21 C11,19.3431458 12.3431458,18 14,18 L42,18 Z M15,33 C13.8954305,33 13,33.8954305 13,35 C13,36.1045695 13.8954305,37 15,37 C16.1045695,37 17,36.1045695 17,35 C17,33.8954305 16.1045695,33 15,33 Z M41,33 C39.8954305,33 39,33.8954305 39,35 C39,36.1045695 39.8954305,37 41,37 C42.1045695,37 43,36.1045695 43,35 C43,33.8954305 42.1045695,33 41,33 Z M33,25 L23,25 C20.2385763,25 18,27.2385763 18,30 C18,32.7614237 20.2385763,35 23,35 L23,35 L33,35 C35.7614237,35 38,32.7614237 38,30 C38,27.2385763 35.7614237,25 33,25 L33,25 Z M33,26.6666667 C34.8409492,26.6666667 36.3333333,28.1590508 36.3333333,30 C36.3333333,31.8409492 34.8409492,33.3333333 33,33.3333333 L33,33.3333333 L23,33.3333333 C21.1590508,33.3333333 19.6666667,31.8409492 19.6666667,30 C19.6666667,28.1590508 21.1590508,26.6666667 23,26.6666667 L23,26.6666667 Z M23.8333333,29.1666667 C23.373096,29.1666667 23,29.5397627 23,30 C23,30.4602373 23.373096,30.8333333 23.8333333,30.8333333 C24.2935706,30.8333333 24.6666667,30.4602373 24.6666667,30 C24.6666667,29.5397627 24.2935706,29.1666667 23.8333333,29.1666667 Z M32.1666667,29.1666667 C31.7064294,29.1666667 31.3333333,29.5397627 31.3333333,30 C31.3333333,30.4602373 31.7064294,30.8333333 32.1666667,30.8333333 C32.626904,30.8333333 33,30.4602373 33,30 C33,29.5397627 32.626904,29.1666667 32.1666667,29.1666667 Z M22.074,20 L15,20 C13.8954305,20 13,20.8954305 13,22 L13,22 L13,29 L22.074,20 Z M26.781,20 L22.0745261,20 L22.0745261,24.6110093 L26.781,20 Z M29.165311,20 L26.7812499,20 L26.7812499,22.3111936 L29.165311,20 Z" id="形状结合" fill="#FFFFFF" transform="translate(28.000000, 32.000000) rotate(15.000000) translate(-28.000000, -32.000000) "></path>
        </g>
    </g>
</svg>