<?xml version="1.0" encoding="UTF-8"?>
<svg width="56px" height="56px" viewBox="0 0 56 56" version="1.1" xmlns="http://www.w3.org/2000/svg" xmlns:xlink="http://www.w3.org/1999/xlink">
    <title>icn_microbit_screenup</title>
    <defs>
        <rect id="path-1" x="0" y="0" width="56" height="56"></rect>
    </defs>
    <g id="icn_microbit_screenup" stroke="none" stroke-width="1" fill="none" fill-rule="evenodd">
        <mask id="mask-2" fill="white">
            <use xlink:href="#path-1"></use>
        </mask>
        <g id="矩形"></g>
        <g id="屏幕朝上" mask="url(#mask-2)">
            <g id="编组-2" transform="translate(3.000000, 21.000000)" fill="#FFFFFF">
                <path d="M18.4981185,0.0245617086 L47.7409525,4.14273316 C49.5616787,4.47601207 50.4715485,5.6312062 49.7549289,6.70480556 L39.2827781,20.0112947 C38.4220498,20.9419601 36.0903033,21.2695275 34.0929514,20.7610627 L1.86523124,13.6823384 C0.0485377814,13.3530593 -0.537744716,12.5188146 0.53745775,11.8008749 L13.8574336,1.31899483 C14.7885274,0.458121176 16.8580508,-0.129531513 18.4981185,0.0245617086 Z M36.3332262,13.8028259 C35.7677852,14.4315791 36.3437496,15.1713426 37.6278009,15.4631898 C38.9163379,15.7594863 40.4122319,15.4829821 40.9608514,14.8375445 C41.5049852,14.1876578 40.9085793,13.4276195 39.6368638,13.1480074 C38.369634,12.8728445 36.8941815,13.1696235 36.3332262,13.8028259 Z M23.9351165,4.95684563 C21.0423091,4.54196147 17.470508,5.39978673 15.9065119,6.82250226 C14.3144799,8.21741041 15.413043,9.7282539 18.4109848,10.2474154 L29.5020871,12.3601475 C32.6295919,13.0078158 36.3262279,12.2738077 37.7079911,10.670345 C39.0617185,9.03907483 37.6678639,7.23534718 34.6454935,6.69195622 L23.9351165,4.95684563 Z M17.6671313,7.08744313 C18.7012288,6.13046945 21.096625,5.57266569 23.03996,5.8639312 L33.8137912,7.66197872 C35.8372713,8.03273602 36.7523122,9.22114138 35.8350306,10.2939787 C34.9052886,11.3544572 32.4550601,11.8578757 30.3848536,11.4407729 L19.3572055,9.3909777 C17.3671441,9.05336671 16.6205733,8.03205797 17.6671313,7.08744313 Z M31.6272949,8.92638692 C31.1204014,8.83268238 30.5166758,8.96729654 30.277426,9.22565746 C30.0373975,9.48324595 30.2549587,9.76923959 30.7647727,9.86584072 C31.2753655,9.96321428 31.8826399,9.83212006 32.119748,9.57163497 C32.3560774,9.31037746 32.1349673,9.02086389 31.6272949,8.92638692 Z M7.68754469,8.49934812 C7.0127639,9.01965292 7.41449479,9.58660326 8.5929579,9.7737231 C9.77590676,9.96529212 11.274842,9.6918044 11.9328013,9.15481523 C12.5862748,8.61337689 12.1641025,8.02615172 10.9979751,7.85126707 C9.83633349,7.6808316 8.35783973,7.97459414 7.68754469,8.49934812 Z M22.5697845,7.34934283 C22.0769919,7.26962432 21.4728602,7.40383565 21.2190084,7.64771361 C20.9643779,7.89081914 21.1586708,8.1537341 21.6543838,8.2363492 C22.1508755,8.31973673 22.7585561,8.18904535 23.0102663,7.94304322 C23.2611976,7.69626866 23.0633559,7.42983377 22.5697845,7.34934283 Z M18.4080144,1.20033028 C17.3010426,1.08411901 15.9096656,1.46428812 15.2921647,2.0414058 L11.2745783,5.59533898 L25.6042968,2.05014149 L23.1713119,4.60289449 L30.4939622,2.7166312 L29.3256551,4.046927 L33.0017637,3.08504623 L18.4080144,1.20033028 Z" id="形状结合"></path>
            </g>
            <line x1="30" y1="28" x2="30" y2="12" id="路径-4" stroke="#3AFFB3" stroke-width="2" stroke-linecap="round" stroke-linejoin="round"></line>
            <polygon id="路径-5" stroke="#3AFFB3" stroke-width="2" fill="#3AFFB3" stroke-linecap="round" stroke-linejoin="round" points="30 11 26 16 34 16"></polygon>
        </g>
    </g>
</svg>