<?xml version="1.0" encoding="UTF-8"?>
<svg width="56px" height="56px" viewBox="0 0 56 56" version="1.1" xmlns="http://www.w3.org/2000/svg" xmlns:xlink="http://www.w3.org/1999/xlink">
    <title>icn_microbit_tiltleft</title>
    <defs>
        <rect id="path-1" x="0" y="0" width="56" height="56"></rect>
    </defs>
    <g id="icn_microbit_tiltleft" stroke="none" stroke-width="1" fill="none" fill-rule="evenodd">
        <mask id="mask-2" fill="white">
            <use xlink:href="#path-1"></use>
        </mask>
        <g id="矩形"></g>
        <g id="向左倾斜" mask="url(#mask-2)">
            <path d="M40.5305599,19.3654699 C41.8822819,19.3654699 43.2702553,20.3185447 43.6306852,21.4942221 L48.4165367,37.1050717 C48.7769666,38.280749 47.4921178,39.2338239 45.5467465,39.2338239 L12.6709541,39.2338239 C10.7255828,39.2338239 9.44073396,38.280749 9.80116389,37.1050717 L14.5870154,21.4942221 C14.9474453,20.3185447 16.3354187,19.3654699 17.6871407,19.3654699 L40.5305599,19.3654699 Z M16.0076802,30.0092309 C14.8945146,30.0092309 13.8202413,30.6446142 13.6082237,31.4283991 C13.3962061,32.212184 14.172564,32.8475672 15.3422677,32.8475672 C16.5119713,32.8475672 17.5862446,32.212184 17.7417241,31.4283991 C17.8972037,30.6446142 17.1208458,30.0092309 16.0076802,30.0092309 Z M42.2100204,30.0092309 C41.0968548,30.0092309 40.3204969,30.6446142 40.4759765,31.4283991 C40.631456,32.212184 41.7057293,32.8475672 42.8754329,32.8475672 C44.0451365,32.8475672 44.8214945,32.212184 44.6094769,31.4283991 C44.3974593,30.6446142 43.323186,30.0092309 42.2100204,30.0092309 Z M33.6359061,24.3325584 L24.5817945,24.3325584 C22.0815706,24.3325584 19.7682816,25.9210164 19.414919,27.8804787 C19.0615563,29.839941 21.0883882,31.4283991 23.9419748,31.4283991 L34.2757258,31.4283991 C37.1293124,31.4283991 39.1561443,29.839941 38.8027816,27.8804787 C38.449419,25.9210164 36.13613,24.3325584 33.6359061,24.3325584 Z M33.7425427,25.5151985 C35.4486212,25.5151985 36.9908138,26.5741705 37.1871264,27.8804787 C37.383439,29.1867869 36.0322177,30.245759 34.1690892,30.245759 L24.0486114,30.245759 C22.1854829,30.245759 20.8342616,29.1867869 21.0305742,27.8804787 C21.2268868,26.5741705 22.7690794,25.5151985 24.4751579,25.5151985 L33.7425427,25.5151985 Z M25.1141442,27.2891587 C24.6729011,27.2891587 24.2913315,27.5539017 24.2618846,27.8804787 C24.2324377,28.2070558 24.5742216,28.4717988 25.0252803,28.4717988 C25.476339,28.4717988 25.8579086,28.2070558 25.8775399,27.8804787 C25.8971711,27.5539017 25.5553872,27.2891587 25.1141442,27.2891587 Z M33.1035564,27.2891587 C32.6623134,27.2891587 32.3205295,27.5539017 32.3401607,27.8804787 C32.359792,28.2070558 32.7413616,28.4717988 33.1924203,28.4717988 C33.643479,28.4717988 33.9852629,28.2070558 33.955816,27.8804787 C33.9263691,27.5539017 33.5447995,27.2891587 33.1035564,27.2891587 Z M24.1225409,20.784638 L18.1702708,20.784638 C17.2408538,20.784638 16.3155382,21.4200212 16.1035206,22.2038062 L14.7598992,27.1708947 L24.1225409,20.784638 Z M28.0831481,20.784638 L24.1229836,20.784638 L23.7733552,24.0565368 L28.0831481,20.784638 Z M30.089377,20.784638 L28.0833584,20.784638 L28.0473139,22.4246242 L30.089377,20.784638 Z" id="形状结合" fill="#FFFFFF" transform="translate(29.108850, 29.299647) rotate(-395.000000) translate(-29.108850, -29.299647) "></path>
            <path d="M29.8352098,10.9797868 C27.6018494,14.747957 24.4926938,16.5016039 20.5077427,16.2407276 C16.5227917,15.9798513 13.7186054,13.535209 12.0951839,8.90680046" id="路径-4" stroke="#3AFFB3" stroke-width="2" stroke-linecap="round" stroke-linejoin="round" transform="translate(20.965197, 12.586433) scale(1, -1) rotate(15.000000) translate(-20.965197, -12.586433) "></path>
            <polygon id="路径-5" stroke="#3AFFB3" stroke-width="2" fill="#3AFFB3" stroke-linecap="round" stroke-linejoin="round" transform="translate(13.516368, 20.730669) scale(1, -1) rotate(1.000000) translate(-13.516368, -20.730669) " points="13.5163681 18.2306691 9.51636807 23.2306691 17.5163681 23.2306691"></polygon>
        </g>
    </g>
</svg>