<?xml version="1.0" encoding="UTF-8"?>
<svg width="56px" height="56px" viewBox="0 0 56 56" version="1.1" xmlns="http://www.w3.org/2000/svg" xmlns:xlink="http://www.w3.org/1999/xlink">
    <title>icn_microbit_logodown</title>
    <defs>
        <rect id="path-1" x="0" y="0" width="56" height="56"></rect>
    </defs>
    <g id="icn_microbit_logodown" stroke="none" stroke-width="1" fill="none" fill-rule="evenodd">
        <mask id="mask-2" fill="white">
            <use xlink:href="#path-1"></use>
        </mask>
        <g id="矩形"></g>
        <g id="向前倾斜" mask="url(#mask-2)">
            <g id="编组-2" transform="translate(9.000000, 11.000000)" fill="#FFFFFF">
                <path d="M31.6547775,21.2825414 C33.2066668,21.2825414 34.6402145,20.2616288 34.8511869,19.0022691 L37.0756846,2.2802723 C37.199773,1.02091268 35.8141583,0 33.9863366,0 L3.09707323,0 C1.26925154,0 -0.11636314,1.02091268 0.00772524032,2.2802723 L2.232223,19.0022691 C2.44319539,20.2616288 3.87674309,21.2825414 5.42863237,21.2825414 L31.6547775,21.2825414 Z M10.8988338,14.9550888 L6.3545749,14.9550888 C6.24411794,14.9550888 6.15457489,15.0446319 6.15457489,15.1550888 C6.15457489,15.1637374 6.15513587,15.1723768 6.1562543,15.1809528 L6.81774624,20.2531666 C6.83073755,20.3527819 6.91560798,20.4273027 7.01606683,20.4273027 L11.1861305,20.4273027 C11.2965874,20.4273027 11.3861305,20.3377596 11.3861305,20.2273027 C11.3861305,20.2235304 11.3860237,20.2197588 11.3858104,20.2159926 L11.0985138,15.1437787 C11.0925159,15.0378853 11.004897,14.9550888 10.8988338,14.9550888 Z M16.75521,17.2289302 L13.3209057,17.2289302 C13.2104487,17.2289302 13.1209057,17.3184733 13.1209057,17.4289302 C13.1209057,17.4318079 13.1209678,17.4346853 13.1210919,17.4375603 L13.241955,20.2359327 C13.2465764,20.3429335 13.3346682,20.4273027 13.4417687,20.4273027 L16.7551024,20.4273027 C16.8655567,20.427296 16.9550987,20.337757 16.9551091,20.2273027 L16.9552032,17.4289302 C16.9552137,17.3184733 16.8656737,17.2289272 16.7552167,17.2289235 C16.7552145,17.2289235 16.7552122,17.2289235 16.75521,17.2289302 Z" id="形状结合"></path>
            </g>
            <g id="编组-3" transform="translate(28.000000, 35.954938) scale(1, -1) translate(-28.000000, -35.954938) translate(24.000000, 28.954938)" stroke="#3AFFB3" stroke-linecap="round" stroke-linejoin="round" stroke-width="2">
                <line x1="4" y1="14" x2="4" y2="1" id="路径-4"></line>
                <polygon id="路径-5" fill="#3AFFB3" points="4 -1.30451205e-14 0 5 8 5"></polygon>
            </g>
        </g>
    </g>
</svg>