<?xml version="1.0" encoding="UTF-8"?>
<svg width="56px" height="56px" viewBox="0 0 56 56" version="1.1" xmlns="http://www.w3.org/2000/svg" xmlns:xlink="http://www.w3.org/1999/xlink">
    <title>icn_microbit_shake</title>
    <g id="icn_microbit_shake" stroke="none" stroke-width="1" fill="none" fill-rule="evenodd">
        <g id="震动" transform="translate(0.000000, 0.000000)">
            <path d="M41.7022619,14 C43.3591162,14 44.7022619,15.3431458 44.7022619,17 L44.7022619,39 C44.7022619,40.6568542 43.3591162,42 41.7022619,42 L13.7022619,42 C12.0454077,42 10.7022619,40.6568542 10.7022619,39 L10.7022619,17 C10.7022619,15.3431458 12.0454077,14 13.7022619,14 L41.7022619,14 Z M14.7022619,29 C13.5976924,29 12.7022619,29.8954305 12.7022619,31 C12.7022619,32.1045695 13.5976924,33 14.7022619,33 C15.8068314,33 16.7022619,32.1045695 16.7022619,31 C16.7022619,29.8954305 15.8068314,29 14.7022619,29 Z M40.7022619,29 C39.5976924,29 38.7022619,29.8954305 38.7022619,31 C38.7022619,32.1045695 39.5976924,33 40.7022619,33 C41.8068314,33 42.7022619,32.1045695 42.7022619,31 C42.7022619,29.8954305 41.8068314,29 40.7022619,29 Z M32.7022619,21 L22.7022619,21 C19.9408382,21 17.7022619,23.2385763 17.7022619,26 C17.7022619,28.7614237 19.9408382,31 22.7022619,31 L22.7022619,31 L32.7022619,31 C35.4636857,31 37.7022619,28.7614237 37.7022619,26 C37.7022619,23.2385763 35.4636857,21 32.7022619,21 L32.7022619,21 Z M32.7022619,22.6666667 C34.5432111,22.6666667 36.0355953,24.1590508 36.0355953,26 C36.0355953,27.8409492 34.5432111,29.3333333 32.7022619,29.3333333 L32.7022619,29.3333333 L22.7022619,29.3333333 C20.8613128,29.3333333 19.3689286,27.8409492 19.3689286,26 C19.3689286,24.1590508 20.8613128,22.6666667 22.7022619,22.6666667 L22.7022619,22.6666667 Z M23.5355953,25.1666667 C23.075358,25.1666667 22.7022619,25.5397627 22.7022619,26 C22.7022619,26.4602373 23.075358,26.8333333 23.5355953,26.8333333 C23.9958326,26.8333333 24.3689286,26.4602373 24.3689286,26 C24.3689286,25.5397627 23.9958326,25.1666667 23.5355953,25.1666667 Z M31.8689286,25.1666667 C31.4086913,25.1666667 31.0355953,25.5397627 31.0355953,26 C31.0355953,26.4602373 31.4086913,26.8333333 31.8689286,26.8333333 C32.3291659,26.8333333 32.7022619,26.4602373 32.7022619,26 C32.7022619,25.5397627 32.3291659,25.1666667 31.8689286,25.1666667 Z M21.7762619,16 L14.7022619,16 C13.5976924,16 12.7022619,16.8954305 12.7022619,18 L12.7022619,18 L12.7022619,25 L21.7762619,16 Z M26.4832619,16 L21.776788,16 L21.776788,20.6110093 L26.4832619,16 Z M28.8675729,16 L26.4835119,16 L26.4835119,18.3111936 L28.8675729,16 Z" id="形状结合" fill="#FFFFFF" transform="translate(27.702262, 28.000000) rotate(-15.000000) translate(-27.702262, -28.000000) "></path>
            <path d="M2.79589824,24.3751408 C3.18642253,23.9846165 3.81958751,23.9846165 4.2101118,24.3751408 L7.2101118,27.3751408 C7.60063609,27.7656651 7.60063609,28.39883 7.2101118,28.7893543 L4.91800502,31.0822476 L7.2101118,33.3751408 C7.57059576,33.7356247 7.5983253,34.3028558 7.2933004,34.695147 L7.2101118,34.7893543 L4.91800502,37.0822476 L7.2101118,39.3751408 C7.57059576,39.7356247 7.5983253,40.3028558 7.2933004,40.695147 L7.2101118,40.7893543 L4.2101118,43.7893543 C3.81958751,44.1798786 3.18642253,44.1798786 2.79589824,43.7893543 C2.40537394,43.39883 2.40537394,42.7656651 2.79589824,42.3751408 L5.08800502,40.0822476 L2.79589824,37.7893543 C2.43541427,37.4288704 2.40768474,36.8616393 2.71270963,36.4693481 L2.79589824,36.3751408 L5.08800502,34.0822476 L2.79589824,31.7893543 C2.43541427,31.4288704 2.40768474,30.8616393 2.71270963,30.4693481 L2.79589824,30.3751408 L5.08800502,28.0812476 L2.79589824,25.7893543 C2.43541427,25.4288704 2.40768474,24.8616393 2.71270963,24.4693481 L2.79589824,24.3751408 Z" id="路径-2" fill="#3AFFB3" fill-rule="nonzero" transform="translate(5.003005, 34.082248) scale(-1, 1) rotate(15.000000) translate(-5.003005, -34.082248) "></path>
            <path d="M48.1944121,12.2106457 C48.5849364,11.8201214 49.2181013,11.8201214 49.6086256,12.2106457 L52.6086256,15.2106457 C52.9991499,15.60117 52.9991499,16.2343349 52.6086256,16.6248592 L50.3165189,18.9177524 L52.6086256,21.2106457 C52.9691096,21.5711296 52.9968391,22.1383607 52.6918142,22.5306519 L52.6086256,22.6248592 L50.3165189,24.9177524 L52.6086256,27.2106457 C52.9691096,27.5711296 52.9968391,28.1383607 52.6918142,28.5306519 L52.6086256,28.6248592 L49.6086256,31.6248592 C49.2181013,32.0153835 48.5849364,32.0153835 48.1944121,31.6248592 C47.8038878,31.2343349 47.8038878,30.60117 48.1944121,30.2106457 L50.4865189,27.9177524 L48.1944121,25.6248592 C47.8339281,25.2643753 47.8061986,24.6971442 48.1112235,24.304853 L48.1944121,24.2106457 L50.4865189,21.9177524 L48.1944121,19.6248592 C47.8339281,19.2643753 47.8061986,18.6971442 48.1112235,18.304853 L48.1944121,18.2106457 L50.4865189,15.9177524 L48.1944121,13.6248592 C47.8339281,13.2643753 47.8061986,12.6971442 48.1112235,12.304853 L48.1944121,12.2106457 Z" id="路径-2" fill="#3AFFB3" fill-rule="nonzero" transform="translate(50.401519, 21.917752) rotate(-15.000000) translate(-50.401519, -21.917752) "></path>
        </g>
    </g>
</svg>