<?xml version="1.0" encoding="UTF-8"?>
<svg width="20px" height="20px" viewBox="0 0 20 20" version="1.1" xmlns="http://www.w3.org/2000/svg" xmlns:xlink="http://www.w3.org/1999/xlink">
    <title>切片</title>
    <g id="硬件连接" stroke="none" stroke-width="1" fill="none" fill-rule="evenodd">
        <g id="自定义点阵图_图案" transform="translate(-558.000000, -319.000000)">
            <g id="keyboard_2" transform="translate(413.000000, 0.000000)">
                <g id="btn_填满" transform="translate(138.000000, 315.000000)">
                    <g id="icn_full" transform="translate(7.000000, 4.000000)">
                        <rect id="矩形" x="0" y="0" width="20" height="20"></rect>
                        <g id="编组-2" transform="translate(3.000000, 3.000000)" fill="#B5A4CC">
                            <rect id="矩形" x="10" y="10" width="4" height="4" rx="0.5"></rect>
                            <rect id="矩形" x="5" y="10" width="4" height="4" rx="0.5"></rect>
                            <rect id="矩形" x="0" y="10" width="4" height="4" rx="0.5"></rect>
                            <rect id="矩形" x="10" y="5" width="4" height="4" rx="0.5"></rect>
                            <rect id="矩形" x="5" y="5" width="4" height="4" rx="0.5"></rect>
                            <rect id="矩形" x="0" y="5" width="4" height="4" rx="0.5"></rect>
                            <rect id="矩形" x="10" y="0" width="4" height="4" rx="0.5"></rect>
                            <rect id="矩形" x="5" y="0" width="4" height="4" rx="0.5"></rect>
                            <rect id="矩形" x="0" y="0" width="4" height="4" rx="0.5"></rect>
                        </g>
                    </g>
                </g>
            </g>
        </g>
    </g>
</svg>