<?xml version="1.0" encoding="UTF-8"?>
<svg width="56px" height="56px" viewBox="0 0 56 56" version="1.1" xmlns="http://www.w3.org/2000/svg" xmlns:xlink="http://www.w3.org/1999/xlink">
    <title>icn_microbit_tiltright</title>
    <defs>
        <rect id="path-1" x="0" y="0" width="56" height="56"></rect>
    </defs>
    <g id="icn_microbit_tiltright" stroke="none" stroke-width="1" fill="none" fill-rule="evenodd">
        <mask id="mask-2" fill="white">
            <use xlink:href="#path-1"></use>
        </mask>
        <g id="矩形"></g>
        <g id="向右倾斜" mask="url(#mask-2)">
            <g id="编组-10" transform="translate(24.596413, 1.953603)" stroke="#3AFFB3" stroke-linecap="round" stroke-linejoin="round" stroke-width="2">
                <g id="编组-3" transform="translate(14.072145, 12.479352) scale(-1, -1) rotate(34.000000) translate(-14.072145, -12.479352) translate(1.557758, 5.867594)">
                    <path d="M24.3149528,5.25528289 C21.9431126,8.99146765 18.833957,10.7451146 14.9874858,10.5162237 C11.1410146,10.2873328 8.33682826,7.8426904 6.5749269,3.18229651" id="路径-4" transform="translate(15.444940, 6.859170) rotate(-19.000000) translate(-15.444940, -6.859170) "></path>
                    <polygon id="路径-5" fill="#3AFFB3" transform="translate(4.716280, 4.275233) rotate(-33.000000) translate(-4.716280, -4.275233) " points="4.71627986 1.77523256 0.716279859 6.77523256 8.71627986 6.77523256"></polygon>
                </g>
            </g>
            <path d="M39.5305599,19.3654699 C40.8822819,19.3654699 42.2702553,20.3185447 42.6306852,21.4942221 L47.4165367,37.1050717 C47.7769666,38.280749 46.4921178,39.2338239 44.5467465,39.2338239 L11.6709541,39.2338239 C9.72558281,39.2338239 8.44073396,38.280749 8.80116389,37.1050717 L13.5870154,21.4942221 C13.9474453,20.3185447 15.3354187,19.3654699 16.6871407,19.3654699 L39.5305599,19.3654699 Z M15.0076802,30.0092309 C13.8945146,30.0092309 12.8202413,30.6446142 12.6082237,31.4283991 C12.3962061,32.212184 13.172564,32.8475672 14.3422677,32.8475672 C15.5119713,32.8475672 16.5862446,32.212184 16.7417241,31.4283991 C16.8972037,30.6446142 16.1208458,30.0092309 15.0076802,30.0092309 Z M41.2100204,30.0092309 C40.0968548,30.0092309 39.3204969,30.6446142 39.4759765,31.4283991 C39.631456,32.212184 40.7057293,32.8475672 41.8754329,32.8475672 C43.0451365,32.8475672 43.8214945,32.212184 43.6094769,31.4283991 C43.3974593,30.6446142 42.323186,30.0092309 41.2100204,30.0092309 Z M32.6359061,24.3325584 L23.5817945,24.3325584 C21.0815706,24.3325584 18.7682816,25.9210164 18.414919,27.8804787 C18.0615563,29.839941 20.0883882,31.4283991 22.9419748,31.4283991 L33.2757258,31.4283991 C36.1293124,31.4283991 38.1561443,29.839941 37.8027816,27.8804787 C37.449419,25.9210164 35.13613,24.3325584 32.6359061,24.3325584 Z M32.7425427,25.5151985 C34.4486212,25.5151985 35.9908138,26.5741705 36.1871264,27.8804787 C36.383439,29.1867869 35.0322177,30.245759 33.1690892,30.245759 L23.0486114,30.245759 C21.1854829,30.245759 19.8342616,29.1867869 20.0305742,27.8804787 C20.2268868,26.5741705 21.7690794,25.5151985 23.4751579,25.5151985 L32.7425427,25.5151985 Z M24.1141442,27.2891587 C23.6729011,27.2891587 23.2913315,27.5539017 23.2618846,27.8804787 C23.2324377,28.2070558 23.5742216,28.4717988 24.0252803,28.4717988 C24.476339,28.4717988 24.8579086,28.2070558 24.8775399,27.8804787 C24.8971711,27.5539017 24.5553872,27.2891587 24.1141442,27.2891587 Z M32.1035564,27.2891587 C31.6623134,27.2891587 31.3205295,27.5539017 31.3401607,27.8804787 C31.359792,28.2070558 31.7413616,28.4717988 32.1924203,28.4717988 C32.643479,28.4717988 32.9852629,28.2070558 32.955816,27.8804787 C32.9263691,27.5539017 32.5447995,27.2891587 32.1035564,27.2891587 Z M23.1225409,20.784638 L17.1702708,20.784638 C16.2408538,20.784638 15.3155382,21.4200212 15.1035206,22.2038062 L13.7598992,27.1708947 L23.1225409,20.784638 Z M27.0831481,20.784638 L23.1229836,20.784638 L22.7733552,24.0565368 L27.0831481,20.784638 Z M29.089377,20.784638 L27.0833584,20.784638 L27.0473139,22.4246242 L29.089377,20.784638 Z" id="形状结合" fill="#FFFFFF" transform="translate(28.108850, 29.299647) rotate(-325.000000) translate(-28.108850, -29.299647) "></path>
        </g>
    </g>
</svg>