<?xml version="1.0" encoding="UTF-8"?>
<svg width="20px" height="20px" viewBox="0 0 20 20" version="1.1" xmlns="http://www.w3.org/2000/svg" xmlns:xlink="http://www.w3.org/1999/xlink">
    <title>切片</title>
    <g id="硬件连接" stroke="none" stroke-width="1" fill="none" fill-rule="evenodd">
        <g id="1.4.展开硬件积木盒" transform="translate(-573.000000, -12.000000)">
            <g id="编组" transform="translate(309.000000, 0.000000)">
                <g id="积木盒内标签" transform="translate(252.000000, 0.000000)">
                    <g id="Shape" transform="translate(12.000000, 12.000000)">
                        <polygon points="0 0 20 0 20 20 0 20"></polygon>
                        <path d="M4.16666667,15.8333333 C4.16666667,16.75 4.91666667,17.5 5.83333333,17.5 L14.1666667,17.5 C15.0833333,17.5 15.8333333,16.75 15.8333333,15.8333333 L15.8333333,5.83333333 L4.16666667,5.83333333 L4.16666667,15.8333333 Z M5.83333333,7.5 L14.1666667,7.5 L14.1666667,15.8333333 L5.83333333,15.8333333 L5.83333333,7.5 Z M12.9166667,3.33333333 L12.0833333,2.5 L7.91666667,2.5 L7.08333333,3.33333333 L3.33333333,3.33333333 L3.33333333,5 L16.6666667,5 L16.6666667,3.33333333 L12.9166667,3.33333333 Z" fill="#B19FD7" fill-rule="nonzero"></path>
                    </g>
                </g>
            </g>
        </g>
    </g>
</svg>