<?xml version="1.0" encoding="UTF-8"?>
<svg width="16px" height="16px" viewBox="0 0 16 16" version="1.1" xmlns="http://www.w3.org/2000/svg" xmlns:xlink="http://www.w3.org/1999/xlink">
  <g transform="translate(3, 2)">
    <path d="M0.564404709,3.0019268 L0.607137756,3.00674819 L0.607137756,3.00674819 C0.66797165,3.01607262 0.727538181,3.03566678 0.783110696,3.0659648 L0.838123716,3.10047478 L4.19,5.5 L4.19,5.499 L5.587,6.499 L5.586,6.5 L9.21905261,9.09963693 C9.47048048,9.2796118 9.49562326,9.62156404 9.29448097,9.83393438 L9.21905261,9.89952522 L5.02858816,12.8991063 C4.70794014,13.1286297 4.26013998,12.9422604 4.19780449,12.5846228 L4.19049527,12.4991622 L4.19,7.499 L0.838123716,9.89952522 C0.606690756,10.0651875 0.278367159,10.0204222 0.104792438,9.79953919 C-0.0554303809,9.59564714 -0.0277902106,9.3129608 0.159438479,9.14037917 L0.209554049,9.09963693 L3.8411153,6.5 L0.209554049,3.90036307 C-0.00407637606,3.74744403 -0.0604744882,3.46867869 0.0686341832,3.25296606 L0.104792438,3.20046081 C0.185992318,3.09712965 0.301058309,3.0323411 0.424228055,3.00960771 L0.391386928,3.01671555 C0.417623626,3.01018858 0.444345554,3.00560755 0.47129339,3.00300782 L0.424228055,3.00960771 C0.4702698,3.0011098 0.517443898,2.99848834 0.564404709,3.0019268 Z M4.95256865,0.0551981225 L5.02858816,0.1008937 L9.21905261,3.10047478 C9.47048048,3.28044964 9.49562326,3.62240189 9.29448097,3.83477223 L9.21905261,3.90036307 L7.071,5.437 L4.19,3.375 L4.19049527,0.500837844 C4.19049527,0.1182988 4.61539199,-0.111789284 4.95256865,0.0551981225 Z" id="形状结合" fill="#EE3A57" fill-rule="nonzero"></path><polyline id="路径" stroke="#EE3A57" stroke-linecap="round" stroke-linejoin="round" points="0.523838883 3.50041892 4.71430333 6.5 11 10.9993716"></polyline>
  </g>
</svg>