<?xml version="1.0" encoding="UTF-8"?>
<svg width="32px" height="36px" viewBox="0 0 32 36" version="1.1" xmlns="http://www.w3.org/2000/svg" xmlns:xlink="http://www.w3.org/1999/xlink">
    <!-- Generator: Sketch 48.1 (47250) - http://www.bohemiancoding.com/sketch -->
    <title>btn_block_increase</title>
    <desc>Created with Sketch.</desc>
    <defs>
        <circle id="path-1" cx="16" cy="18" r="10"></circle>
    </defs>
    <g id="积木设计汇总" stroke="none" stroke-width="1" fill="none" fill-rule="evenodd" transform="translate(-1021.000000, -4118.000000)">
        <g id="15" transform="translate(676.000000, 3809.000000)">
            <g id="block" transform="translate(44.000000, 307.000000)">
                <g id="btn_block_increase" transform="translate(301.000000, 2.000000)">
                    <g id="Oval-4">
                        <use fill-opacity="0.15" fill="#FFFFFF" fill-rule="evenodd" xlink:href="#path-1"></use>
                        <circle stroke-opacity="0.15" stroke="#000000" stroke-width="1" cx="16" cy="18" r="10.5"></circle>
                    </g>
                    <path d="M15,17 L15,14 C15,13.4477153 15.4477153,13 16,13 C16.5522847,13 17,13.4477153 17,14 L17,17 L20,17 C20.5522847,17 21,17.4477153 21,18 C21,18.5522847 20.5522847,19 20,19 L17,19 L17,22 C17,22.5522847 16.5522847,23 16,23 C15.4477153,23 15,22.5522847 15,22 L15,19 L12,19 C11.4477153,19 11,18.5522847 11,18 C11,17.4477153 11.4477153,17 12,17 L15,17 Z" id="Combined-Shape" fill="#FFFFFF"></path>
                </g>
            </g>
        </g>
    </g>
</svg>