<svg width="36px" height="36px" viewBox="270 198 36 36" version="1.1" xmlns="http://www.w3.org/2000/svg"
     xmlns:xlink="http://www.w3.org/1999/xlink">
    <!-- Generator: Sketch 3.7 (28169) - http://www.bohemiancoding.com/sketch -->
    <desc>Created with Sketch.</desc>
    <defs>
        <circle id="path-1" cx="288" cy="216" r="18"></circle>
        <mask id="mask-2" maskContentUnits="userSpaceOnUse" maskUnits="objectBoundingBox" x="0" y="0" width="36"
              height="36" fill="white">
            <use xlink:href="#path-1"></use>
        </mask>
    </defs>
    <use id="Oval-71-Copy-8" stroke="#5C7DEC" mask="url(#mask-2)" stroke-width="2" fill="#FFFFFF" fill-rule="evenodd"
         xlink:href="#path-1"></use>
    <g id="Group" stroke="none" stroke-width="1" fill="none" fill-rule="evenodd"
       transform="translate(288.000000, 217.000000) scale(-1, 1) translate(-288.000000, -217.000000) translate(281.000000, 208.000000)">
        <path d="M3.85209097,7.15757159 L7.13002923,3.86053558 L3.96362387,3.3770059 C3.61703629,3.3240768 3.31873957,3.62413954 3.37136209,3.97271828 L3.85209097,7.15757159 L3.85209097,7.15757159 Z"
              id="Shape" fill="#5B97FF"></path>
        <path d="M9.26444086,14.5124397 C8.70769858,14.7495666 8.13354588,14.9271025 7.54631439,15.0443729 L5.81851857,16.5935962 C5.58072517,16.8068305 5.73065602,17.2026884 6.04924161,17.2026884 L12.6502231,17.2026884 C12.9374532,17.2026884 13.1703281,16.9684568 13.1703281,16.6795533 L13.1703281,11.2754443 C12.853028,11.7482926 12.4899243,12.1908957 12.0832246,12.5999649 C11.2686516,13.4192556 10.3203006,14.0627251 9.26444086,14.5124397 L9.26444086,14.5124397 Z"
              id="Shape" fill="#5B97FF"></path>
        <path d="M11.9132005,0.95025022 C11.8098838,0.831040281 11.6654024,0.770662316 11.5206137,0.770662316 C11.3878976,0.770662316 11.2549021,0.821342703 11.1529827,0.923855942 L8.08790989,4.00681441 L3.99752249,8.12100489 L0.474748414,11.6643313 C0.261631425,11.878718 0.27378798,12.2297704 0.500989805,12.4289783 C1.92216098,13.6751592 3.78038126,14.4299119 5.81385157,14.4299119 C6.91878463,14.4299119 7.97240864,14.2061649 8.93249704,13.8014807 C10.6021929,13.0976895 11.9887389,11.8464209 12.8692368,10.2716747 C13.527088,9.0951477 13.9025719,7.73816138 13.9025719,6.2940655 C13.902544,4.2487479 13.1521631,2.37970134 11.9132005,0.95025022 L11.9132005,0.95025022 Z"
              id="Shape" fill="#5B97FF"></path>
        <path d="M3.85600342,2.45820956 C4.22925159,2.45820956 4.58017081,2.60440407 4.84412177,2.86986473 C4.99645598,3.02305835 5.24344364,3.02305835 5.39577786,2.86983662 C5.54811207,2.71661488 5.54808412,2.46818823 5.39574991,2.3149665 C4.98443915,1.9013156 4.43761774,1.67349278 3.85600342,1.67349278 C2.65524317,1.67349278 1.67835916,2.65609637 1.67835916,3.86382432 C1.67835916,4.44891153 1.90489028,4.99897503 2.31620104,5.41265403 C2.39235417,5.48925085 2.49217766,5.52756331 2.59200114,5.52756331 C2.69182462,5.52756331 2.79167605,5.48925085 2.86782919,5.41262593 C3.0201634,5.25940419 3.0201634,5.01097754 2.86780124,4.85778391 C2.60382234,4.59229514 2.45847466,4.2393033 2.45847466,3.86382432 C2.4585026,3.08877701 3.08541755,2.45820956 3.85600342,2.45820956 L3.85600342,2.45820956 Z"
              id="Shape" fill="#5B97FF"></path>
        <path d="M1.3926382,6.57641963 C1.49246168,6.57641963 1.59231311,6.53810717 1.66846624,6.46148224 C1.82080046,6.30826051 1.82077251,6.05983386 1.6684383,5.90664023 C1.1050169,5.33996436 0.794731304,4.5864766 0.794731304,3.78503501 C0.794703358,2.13065629 2.1328746,0.784688669 3.77767049,0.784688669 C4.57438597,0.784688669 5.32345334,1.09675392 5.88681885,1.66337357 C6.03915306,1.81659531 6.28614073,1.8165672 6.438447,1.66334546 C6.59078121,1.51012373 6.59078121,1.26169708 6.43841905,1.10850345 C5.72772168,0.393665454 4.78278007,0 3.77767049,0 C2.77247708,0 1.82750752,0.393721671 1.11675426,1.10858778 C0.406000998,1.82345388 0.0145878663,2.77398519 0.0145878663,3.7850069 C0.0145878663,4.79605672 0.406028944,5.74658803 1.1168381,6.46148224 C1.19299123,6.53810717 1.29281471,6.57641963 1.3926382,6.57641963 L1.3926382,6.57641963 Z"
              id="Shape" fill="#5B97FF"></path>
    </g>
</svg>
