<svg width="215" height="73" viewBox="0 0 215 73" xmlns="http://www.w3.org/2000/svg">
  <defs>
    <linearGradient x1="0%" y1="50%" y2="50%" id="a">
      <stop stop-color="#66B3FD" offset="0%" />
      <stop stop-color="#6032FD" offset="100%" />
    </linearGradient>
  </defs>
  <path
    d="M24.733 6.55a2 2 0 0 1 .073.072l8.003 8.42h179.095a4 4 0 0 1 4 4V75a4 4 0 0 1-4 4h-207a4 4 0 0 1-4-4V19.042a4 4 0 0 1 4-4H13.9l8.005-8.42a2 2 0 0 1 2.827-.072z"
    transform="translate(-.904 -6)" fill="url(#a)" fill-rule="evenodd" />
</svg>
