<?xml version="1.0" encoding="UTF-8" standalone="no"?>
<svg width="36px" height="143px" viewBox="0 0 36 143" version="1.1" xmlns="http://www.w3.org/2000/svg" xmlns:xlink="http://www.w3.org/1999/xlink">
    <!-- Generator: Sketch 40 (33762) - http://www.bohemiancoding.com/sketch -->
    <title>Oval 71 Copy 24</title>
    <desc>Created with Sketch.</desc>
    <defs>
        <circle id="path-1" cx="1601" cy="921" r="18"></circle>
        <mask id="mask-2" maskContentUnits="userSpaceOnUse" maskUnits="objectBoundingBox" x="0" y="0" width="36" height="36" fill="white">
            <use xlink:href="#path-1"></use>
        </mask>
    </defs>
    <g id="Page-1" stroke="none" stroke-width="1" fill="none" fill-rule="evenodd">
        <g id="函数" transform="translate(-1583.000000, -835.000000)">
            <path d="M1611.15662,853.934883 C1611.11397,854.084182 1610.92201,854.187777 1610.66759,854.324889 C1610.39184,854.469618 1610.15266,854.455907 1609.98203,854.408679 C1609.81598,854.359929 1609.66668,854.250239 1609.54175,854.084182 L1607.25047,851.052492 L1604.47015,854.068947 C1604.13803,854.428484 1603.76174,854.481806 1603.33212,854.227387 C1603.1554,854.123792 1602.83242,853.73988 1602.79434,853.566205 C1602.75778,853.394054 1602.82633,853.212762 1603.00305,853.019282 L1606.0774,849.673759 L1603.83791,846.710625 C1603.74498,846.575037 1603.73584,846.416597 1603.80896,846.236828 C1603.87904,846.05706 1604.0451,845.950417 1604.22182,845.845299 C1604.47624,845.702093 1604.70933,845.697523 1604.88148,845.711234 C1605.05516,845.721898 1605.21207,845.820923 1605.3568,846.003739 L1607.21847,848.430614 L1609.47167,845.976316 C1609.66668,845.759985 1609.88758,845.683812 1610.10086,845.622873 C1610.31262,845.561935 1610.73158,845.781313 1610.9601,845.909284 C1611.19471,846.035731 1611.31659,846.181984 1611.33182,846.346518 C1611.34553,846.511052 1611.28155,846.672539 1611.13529,846.832502 L1608.3824,849.818488 L1611.09873,853.543353 C1611.18404,853.654566 1611.20537,853.78863 1611.15662,853.934883 L1611.15662,853.934883 Z M1604.08166,839.085697 C1603.12645,838.977531 1601.12615,838.834326 1599.91347,839.618909 C1598.69775,840.406539 1598,841.759373 1597.66179,843.368149 L1597.18495,845.641155 L1593.76173,845.641155 C1593.36411,845.641155 1593.04723,845.755414 1593.01371,846.468395 C1593.04723,846.856877 1593.36411,847.164617 1593.76173,847.164617 L1596.85741,847.164617 L1594.81749,857.131106 C1594.81749,857.131106 1594.29494,858.756641 1595.43754,858.828243 C1596.43541,858.890705 1596.63346,857.266695 1596.63346,857.266695 L1598.69013,847.164617 L1601.30287,847.164617 C1601.72334,847.164617 1602.0646,846.823361 1602.0646,846.402886 C1602.0646,845.98241 1601.72334,845.641155 1601.30287,845.641155 L1599.01463,845.641155 L1599.4671,843.413853 C1600.4345,839.864186 1602.23827,840.726466 1603.90494,840.726466 C1604.17764,840.726466 1605.20598,840.798068 1605.27758,840.094229 C1605.36899,839.213668 1604.48386,839.131401 1604.08166,839.085697 L1604.08166,839.085697 Z M1593,846.579607 C1593,846.533903 1593.0448,846.511052 1593.0576,846.469918 C1593.0448,846.447066 1593,846.427261 1593,846.402886 L1593,846.579607 L1593,846.579607 Z" id="Shape-Copy-2" fill="#FFFFFF"></path>
            <path d="M1611.15662,885.934883 C1611.11397,886.084182 1610.92201,886.187777 1610.66759,886.324889 C1610.39184,886.469618 1610.15266,886.455907 1609.98203,886.408679 C1609.81598,886.359929 1609.66668,886.250239 1609.54175,886.084182 L1607.25047,883.052492 L1604.47015,886.068947 C1604.13803,886.428484 1603.76174,886.481806 1603.33212,886.227387 C1603.1554,886.123792 1602.83242,885.73988 1602.79434,885.566205 C1602.75778,885.394054 1602.82633,885.212762 1603.00305,885.019282 L1606.0774,881.673759 L1603.83791,878.710625 C1603.74498,878.575037 1603.73584,878.416597 1603.80896,878.236828 C1603.87904,878.05706 1604.0451,877.950417 1604.22182,877.845299 C1604.47624,877.702093 1604.70933,877.697523 1604.88148,877.711234 C1605.05516,877.721898 1605.21207,877.820923 1605.3568,878.003739 L1607.21847,880.430614 L1609.47167,877.976316 C1609.66668,877.759985 1609.88758,877.683812 1610.10086,877.622873 C1610.31262,877.561935 1610.73158,877.781313 1610.9601,877.909284 C1611.19471,878.035731 1611.31659,878.181984 1611.33182,878.346518 C1611.34553,878.511052 1611.28155,878.672539 1611.13529,878.832502 L1608.3824,881.818488 L1611.09873,885.543353 C1611.18404,885.654566 1611.20537,885.78863 1611.15662,885.934883 L1611.15662,885.934883 Z M1604.08166,871.085697 C1603.12645,870.977531 1601.12615,870.834326 1599.91347,871.618909 C1598.69775,872.406539 1598,873.759373 1597.66179,875.368149 L1597.18495,877.641155 L1593.76173,877.641155 C1593.36411,877.641155 1593.04723,877.755414 1593.01371,878.468395 C1593.04723,878.856877 1593.36411,879.164617 1593.76173,879.164617 L1596.85741,879.164617 L1594.81749,889.131106 C1594.81749,889.131106 1594.29494,890.756641 1595.43754,890.828243 C1596.43541,890.890705 1596.63346,889.266695 1596.63346,889.266695 L1598.69013,879.164617 L1601.30287,879.164617 C1601.72334,879.164617 1602.0646,878.823361 1602.0646,878.402886 C1602.0646,877.98241 1601.72334,877.641155 1601.30287,877.641155 L1599.01463,877.641155 L1599.4671,875.413853 C1600.4345,871.864186 1602.23827,872.726466 1603.90494,872.726466 C1604.17764,872.726466 1605.20598,872.798068 1605.27758,872.094229 C1605.36899,871.213668 1604.48386,871.131401 1604.08166,871.085697 L1604.08166,871.085697 Z M1593,878.579607 C1593,878.533903 1593.0448,878.511052 1593.0576,878.469918 C1593.0448,878.447066 1593,878.427261 1593,878.402886 L1593,878.579607 L1593,878.579607 Z" id="Shape-Copy-4" fill="#575E75"></path>
            <use id="Oval-71-Copy-24" stroke="#575E75" mask="url(#mask-2)" stroke-width="2" fill="#FFFFFF" xlink:href="#path-1"></use>
            <path d="M1610.15662,925.934883 C1610.11397,926.084182 1609.92201,926.187777 1609.66759,926.324889 C1609.39184,926.469618 1609.15266,926.455907 1608.98203,926.408679 C1608.81598,926.359929 1608.66668,926.250239 1608.54175,926.084182 L1606.25047,923.052492 L1603.47015,926.068947 C1603.13803,926.428484 1602.76174,926.481806 1602.33212,926.227387 C1602.1554,926.123792 1601.83242,925.73988 1601.79434,925.566205 C1601.75778,925.394054 1601.82633,925.212762 1602.00305,925.019282 L1605.0774,921.673759 L1602.83791,918.710625 C1602.74498,918.575037 1602.73584,918.416597 1602.80896,918.236828 C1602.87904,918.05706 1603.0451,917.950417 1603.22182,917.845299 C1603.47624,917.702093 1603.70933,917.697523 1603.88148,917.711234 C1604.05516,917.721898 1604.21207,917.820923 1604.3568,918.003739 L1606.21847,920.430614 L1608.47167,917.976316 C1608.66668,917.759985 1608.88758,917.683812 1609.10086,917.622873 C1609.31262,917.561935 1609.73158,917.781313 1609.9601,917.909284 C1610.19471,918.035731 1610.31659,918.181984 1610.33182,918.346518 C1610.34553,918.511052 1610.28155,918.672539 1610.13529,918.832502 L1607.3824,921.818488 L1610.09873,925.543353 C1610.18404,925.654566 1610.20537,925.78863 1610.15662,925.934883 L1610.15662,925.934883 Z M1603.08166,911.085697 C1602.12645,910.977531 1600.12615,910.834326 1598.91347,911.618909 C1597.69775,912.406539 1597,913.759373 1596.66179,915.368149 L1596.18495,917.641155 L1592.76173,917.641155 C1592.36411,917.641155 1592.04723,917.755414 1592.01371,918.468395 C1592.04723,918.856877 1592.36411,919.164617 1592.76173,919.164617 L1595.85741,919.164617 L1593.81749,929.131106 C1593.81749,929.131106 1593.29494,930.756641 1594.43754,930.828243 C1595.43541,930.890705 1595.63346,929.266695 1595.63346,929.266695 L1597.69013,919.164617 L1600.30287,919.164617 C1600.72334,919.164617 1601.0646,918.823361 1601.0646,918.402886 C1601.0646,917.98241 1600.72334,917.641155 1600.30287,917.641155 L1598.01463,917.641155 L1598.4671,915.413853 C1599.4345,911.864186 1601.23827,912.726466 1602.90494,912.726466 C1603.17764,912.726466 1604.20598,912.798068 1604.27758,912.094229 C1604.36899,911.213668 1603.48386,911.131401 1603.08166,911.085697 L1603.08166,911.085697 Z M1592,918.579607 C1592,918.533903 1592.0448,918.511052 1592.0576,918.469918 C1592.0448,918.447066 1592,918.427261 1592,918.402886 L1592,918.579607 L1592,918.579607 Z" id="Shape-Copy-15" fill="#575E75"></path>
            <ellipse id="Oval-75-Copy-38" fill-opacity="0.2" fill="#000000" cx="1602" cy="961" rx="14" ry="14"></ellipse>
            <path d="M1610.48105,965.556626 C1610.44233,965.692147 1610.26809,965.786182 1610.03715,965.910641 C1609.78685,966.042013 1609.56974,966.029567 1609.41486,965.986699 C1609.26412,965.942447 1609.1286,965.84288 1609.01521,965.692147 L1606.93537,962.940235 L1604.41163,965.678318 C1604.11017,966.004676 1603.7686,966.053076 1603.37863,965.822137 C1603.21821,965.728102 1602.92505,965.379618 1602.89047,965.221971 C1602.85728,965.065707 1602.91951,964.901145 1603.07993,964.725521 L1605.87056,961.688737 L1603.83774,958.999055 C1603.75338,958.875979 1603.74509,958.732161 1603.81147,958.568982 C1603.87508,958.405803 1604.02581,958.309002 1604.18622,958.213584 C1604.41716,958.083594 1604.62874,958.079446 1604.78501,958.091892 C1604.94265,958.101572 1605.08509,958.191458 1605.21646,958.357403 L1606.90633,960.560315 L1608.95159,958.332511 C1609.1286,958.136143 1609.32912,958.067 1609.52272,958.011685 C1609.71494,957.95637 1610.09523,958.155504 1610.30266,958.271665 C1610.51562,958.386443 1610.62625,958.519199 1610.64008,958.668549 C1610.65252,958.817899 1610.59444,958.964483 1610.46169,959.109684 L1607.96284,961.82011 L1610.4285,965.201228 C1610.50594,965.302178 1610.5253,965.42387 1610.48105,965.556626 L1610.48105,965.556626 Z M1604.059,952.077788 C1603.19194,951.979605 1601.37623,951.849615 1600.27547,952.561793 C1599.17194,953.276737 1598.53858,954.504726 1598.23158,955.965037 L1597.79874,958.02828 L1594.69144,958.02828 C1594.33051,958.02828 1594.04287,958.131995 1594.01245,958.779178 C1594.04287,959.13181 1594.33051,959.41115 1594.69144,959.41115 L1597.50143,959.41115 L1595.64976,968.457888 C1595.64976,968.457888 1595.17544,969.933411 1596.21259,969.998405 C1597.11837,970.055103 1597.29815,968.580963 1597.29815,968.580963 L1599.16502,959.41115 L1601.53664,959.41115 C1601.91832,959.41115 1602.22808,959.101387 1602.22808,958.719715 C1602.22808,958.338043 1601.91832,958.02828 1601.53664,958.02828 L1599.45957,958.02828 L1599.87028,956.006523 C1600.74841,952.784435 1602.38573,953.56714 1603.89859,953.56714 C1604.14612,953.56714 1605.07956,953.632135 1605.14455,952.993249 C1605.22752,952.193949 1604.42408,952.119274 1604.059,952.077788 L1604.059,952.077788 Z M1594,958.880128 C1594,958.838642 1594.0448,958.817899 1594.0576,958.780561 C1594.0448,958.759818 1594,958.741841 1594,958.719715 L1594,958.880128 L1594,958.880128 Z" id="Shape-Copy-25" fill="#7D87A8"></path>
        </g>
    </g>
</svg>