<?xml version="1.0" encoding="UTF-8" standalone="no"?>
<svg width="46px" height="46px" viewBox="0 0 46 46" version="1.1" xmlns="http://www.w3.org/2000/svg" xmlns:xlink="http://www.w3.org/1999/xlink">
    <!-- Generator: Sketch 48.1 (47250) - http://www.bohemiancoding.com/sketch -->
    <title>9</title>
    <desc>Created with Sketch.</desc>
    <defs>
        <circle id="path-1" cx="19" cy="19" r="19"></circle>
        <filter x="-15.8%" y="-15.8%" width="131.6%" height="131.6%" filterUnits="objectBoundingBox" id="filter-2">
            <feOffset dx="0" dy="0" in="SourceAlpha" result="shadowOffsetOuter1"></feOffset>
            <feGaussianBlur stdDeviation="2" in="shadowOffsetOuter1" result="shadowBlurOuter1"></feGaussianBlur>
            <feColorMatrix values="0 0 0 0 0   0 0 0 0 0   0 0 0 0 0  0 0 0 0.5 0" type="matrix" in="shadowBlurOuter1"></feColorMatrix>
        </filter>
        <path d="M23.9925426,16.9692308 C23.8602273,16.9711692 23.7509233,17.0777846 23.7528409,17.2115385 L23.7528409,19.15 C23.7528409,19.5449615 24.0673295,19.8769231 24.4575639,19.8769231 L26.3895597,19.8769231 C26.7107599,19.8769231 26.7030895,19.3923077 26.3895597,19.3923077 L24.4575639,19.3923077 C24.332919,19.3923077 24.2322443,19.2919923 24.2322443,19.15 L24.2322443,17.2115385 C24.2341619,17.0748769 24.1277344,16.9672923 23.9925426,16.9692308 Z M18.704723,16 C18.314968,16 18,16.3319615 18,16.7269231 L18,27.8730769 C18,28.2680385 18.3144886,28.6 18.704723,28.6 L26.8833452,28.6 C27.2735795,28.6 27.5880682,28.2680385 27.5880682,27.8730769 L27.5880682,19.15 C27.5880682,19.0855462 27.5626598,19.024 27.5180753,18.9784462 L24.6416548,16.0707538 C24.5965909,16.0256846 24.5361861,16 24.471946,16 L18.704723,16 Z M18.704723,16.4846154 L24.3727095,16.4846154 L27.1086648,19.2503154 L27.1086648,27.8730769 C27.1086648,28.0150692 27.0079901,28.1153846 26.8833452,28.1153846 L18.704723,28.1153846 C18.5800781,28.1153846 18.4794034,28.0150692 18.4794034,27.8730769 L18.4794034,16.7269231 C18.4794034,16.5849308 18.5800781,16.4846154 18.704723,16.4846154 Z" id="path-3"></path>
    </defs>
    <g id="Nemo" stroke="none" stroke-width="1" fill="none" fill-rule="evenodd" transform="translate(-430.000000, -157.000000)">
        <g id="btn_paste" transform="translate(434.000000, 161.000000)">
            <g id="Path3">
                <use fill="black" fill-opacity="1" filter="url(#filter-2)" xlink:href="#path-1"></use>
                <use fill="#FB8C00" fill-rule="evenodd" xlink:href="#path-1"></use>
            </g>
            <path d="M11,9.28627016 C11,9.1267273 11.1293302,8.99768528 11.2892293,9.00003149 L22.2164525,9.00003149 C22.3763517,9.00003149 22.5056818,9.1267273 22.5056818,9.28627016 L22.5056818,14.5112989 C22.5056818,14.6684956 22.3763517,14.7975376 22.2164525,14.7975376 C22.0565534,14.7975376 21.9272233,14.6708418 21.9272233,14.5112989 L21.9272233,9.57250883 L11.5761071,9.57250883 L11.5761071,19.900563 L16.5564942,19.900563 C16.7163933,19.900563 16.8457235,20.029605 16.8457235,20.1891479 C16.8457235,20.3486908 16.7163933,20.4777328 16.5564942,20.4777328 L11.2892293,20.4777328 C11.1293302,20.4777328 11,20.3486908 11,20.1891479 L11,9.28627016 Z M14.1956308,15.0438906 C14.1956308,14.8843477 14.324961,14.7553057 14.4848601,14.7553057 L16.3636747,14.7553057 L13.1022031,11.5011005 C12.9893331,11.388482 12.9893331,11.2078232 13.1022031,11.0952047 C13.215073,10.9825862 13.3961352,10.9825862 13.5090052,11.0952047 L16.7704768,14.3494099 L16.7704768,12.4747812 C16.7704768,12.3152383 16.899807,12.1861963 17.0597061,12.1861963 C17.2196052,12.1861963 17.3489354,12.3152383 17.3489354,12.4747812 L17.3489354,15.0438906 C17.3489354,15.2034334 17.2196052,15.3324754 17.0597061,15.3324754 L14.4848601,15.3324754 C14.324961,15.3324754 14.1956308,15.2034334 14.1956308,15.0438906 Z" id="minimize-1" stroke="#FFFFFF" stroke-width="0.5" fill="#FFFFFF" fill-rule="nonzero"></path>
            <mask id="mask-4" fill="white">
                <use xlink:href="#path-3"></use>
            </mask>
            <use id="Icon" stroke="#FFFFFF" stroke-width="0.5" fill="#FFFFFF" fill-rule="nonzero" xlink:href="#path-3"></use>
        </g>
    </g>
</svg>