<?xml version="1.0" encoding="UTF-8" standalone="no"?>
<svg width="46px" height="46px" viewBox="0 0 46 46" version="1.1" xmlns="http://www.w3.org/2000/svg" xmlns:xlink="http://www.w3.org/1999/xlink">
    <!-- Generator: Sketch 48.1 (47250) - http://www.bohemiancoding.com/sketch -->
    <title>10</title>
    <desc>Created with Sketch.</desc>
    <defs>
        <circle id="path-1" cx="19" cy="19" r="19"></circle>
        <filter x="-15.8%" y="-15.8%" width="131.6%" height="131.6%" filterUnits="objectBoundingBox" id="filter-2">
            <feOffset dx="0" dy="0" in="SourceAlpha" result="shadowOffsetOuter1"></feOffset>
            <feGaussianBlur stdDeviation="2" in="shadowOffsetOuter1" result="shadowBlurOuter1"></feGaussianBlur>
            <feColorMatrix values="0 0 0 0 0   0 0 0 0 0   0 0 0 0 0  0 0 0 0.5 0" type="matrix" in="shadowBlurOuter1"></feColorMatrix>
        </filter>
        <path d="M22.3125,11.2666667 C22.14,11.2692 21.9975,11.4085333 22,11.5833333 L22,14.1166667 C22,14.6328333 22.41,15.0666667 22.91875,15.0666667 L25.4375,15.0666667 C25.85625,15.0666667 25.84625,14.4333333 25.4375,14.4333333 L22.91875,14.4333333 C22.75625,14.4333333 22.625,14.3022333 22.625,14.1166667 L22.625,11.5833333 C22.6275,11.4047333 22.48875,11.2641333 22.3125,11.2666667 Z M15.41875,10 C14.910625,10 14.5,10.4338333 14.5,10.95 L14.5,25.5166667 C14.5,26.0328333 14.91,26.4666667 15.41875,26.4666667 L26.08125,26.4666667 C26.59,26.4666667 27,26.0328333 27,25.5166667 L27,14.1166667 C27,14.0324333 26.966875,13.952 26.90875,13.8924667 L23.15875,10.0924667 C23.1,10.0335667 23.02125,10 22.9375,10 L15.41875,10 Z M15.41875,10.6333333 L22.808125,10.6333333 L26.375,14.2477667 L26.375,25.5166667 C26.375,25.7022333 26.24375,25.8333333 26.08125,25.8333333 L15.41875,25.8333333 C15.25625,25.8333333 15.125,25.7022333 15.125,25.5166667 L15.125,10.95 C15.125,10.7644333 15.25625,10.6333333 15.41875,10.6333333 Z M12.91875,12.5333333 C12.410625,12.5333333 12,12.9671667 12,13.4833333 L12,28.05 C12,28.5661667 12.41,29 12.91875,29 L23.58125,29 C24.09,29 24.5,28.5661667 24.5,28.05 L24.5,27.4166667 C24.50625,26.9885333 23.86875,26.9885333 23.875,27.4166667 L23.875,28.05 C23.875,28.2355667 23.74375,28.3666667 23.58125,28.3666667 L12.91875,28.3666667 C12.75625,28.3666667 12.625,28.2355667 12.625,28.05 L12.625,13.4833333 C12.625,13.2977667 12.75625,13.1666667 12.91875,13.1666667 L13.58125,13.1666667 C14.003125,13.173 14.003125,12.527 13.58125,12.5333333 L12.91875,12.5333333 Z" id="path-3"></path>
    </defs>
    <g id="Nemo" stroke="none" stroke-width="1" fill="none" fill-rule="evenodd" transform="translate(-368.000000, -157.000000)">
        <g id="btn_copy" transform="translate(372.000000, 161.000000)">
            <g id="Path2">
                <use fill="black" fill-opacity="1" filter="url(#filter-2)" xlink:href="#path-1"></use>
                <use fill="#FB8C00" fill-rule="evenodd" xlink:href="#path-1"></use>
            </g>
            <mask id="mask-4" fill="white">
                <use xlink:href="#path-3"></use>
            </mask>
            <use id="Icon" stroke="#FFFFFF" stroke-width="0.5" fill="#FFFFFF" fill-rule="nonzero" xlink:href="#path-3"></use>
        </g>
    </g>
</svg>