<?xml version="1.0" encoding="UTF-8" standalone="no"?>
<svg width="46px" height="46px" viewBox="0 0 46 46" version="1.1" xmlns="http://www.w3.org/2000/svg" xmlns:xlink="http://www.w3.org/1999/xlink">
    <!-- Generator: Sketch 48.1 (47250) - http://www.bohemiancoding.com/sketch -->
    <title>7</title>
    <desc>Created with Sketch.</desc>
    <defs>
        <circle id="path-1" cx="19" cy="19" r="19"></circle>
        <filter x="-15.8%" y="-15.8%" width="131.6%" height="131.6%" filterUnits="objectBoundingBox" id="filter-2">
            <feOffset dx="0" dy="0" in="SourceAlpha" result="shadowOffsetOuter1"></feOffset>
            <feGaussianBlur stdDeviation="2" in="shadowOffsetOuter1" result="shadowBlurOuter1"></feGaussianBlur>
            <feColorMatrix values="0 0 0 0 0   0 0 0 0 0   0 0 0 0 0  0 0 0 0.5 0" type="matrix" in="shadowBlurOuter1"></feColorMatrix>
        </filter>
    </defs>
    <g id="Nemo" stroke="none" stroke-width="1" fill="none" fill-rule="evenodd" transform="translate(-562.000000, -157.000000)">
        <g id="btn_delete" transform="translate(566.000000, 161.000000)">
            <g id="Path5">
                <use fill="black" fill-opacity="1" filter="url(#filter-2)" xlink:href="#path-1"></use>
                <use fill="#D84315" fill-rule="evenodd" xlink:href="#path-1"></use>
            </g>
            <path d="M14.0323344,27 L21.7756978,27 C22.8404102,27 23.7115386,26.2154574 23.7115386,25.256572 L23.7115386,14.7960043 L12.0964936,14.7960043 L12.0964936,25.256572 C12.0964936,26.2154574 12.9676219,27 14.0323344,27 Z M21.1631644,10.871714 L24.1883404,10.871714 C24.387489,10.871714 24.5508859,11.0372505 24.5508859,11.2414502 L24.5508859,12.2454057 C24.5508859,12.4542494 24.38861,12.6151419 24.1884324,12.6151419 L11.3624535,12.6151419 C11.1521828,12.6151419 11,12.4496054 11,12.2454057 L11,11.2414502 C11,11.0326065 11.1623172,10.871714 11.3625455,10.871714 L14.3877215,10.871714 L15.3556419,10 L20.195244,10 L21.1631644,10.871714 Z M16,17.3577336 L16,24.1385581 L16,17.3577336 Z M20,17.3577336 L20,24.1385581 L20,17.3577336 Z" id="Shape" stroke="#FFFFFF" stroke-width="0.96" stroke-linecap="round" stroke-linejoin="round"></path>
            <circle id="Oval-5" stroke="#FFFFFF" stroke-width="0.7" fill="#FFFFFF" cx="26" cy="22" r="4"></circle>
            <text id="0" font-family="PingFangSC-Medium, PingFang SC" font-size="6" font-weight="400" fill="#D84315">
                <tspan x="24.2" y="24">0</tspan>
            </text>
        </g>
    </g>
</svg>