<svg width="36px" height="36px" viewBox="331 172 36 36" version="1.1" xmlns="http://www.w3.org/2000/svg"
     xmlns:xlink="http://www.w3.org/1999/xlink">
    <!-- Generator: Sketch 3.7 (28169) - http://www.bohemiancoding.com/sketch -->
    <desc>Created with Sketch.</desc>
    <defs>
        <circle id="path-1" cx="349" cy="190" r="18"></circle>
        <mask id="mask-2" maskContentUnits="userSpaceOnUse" maskUnits="objectBoundingBox" x="0" y="0" width="36"
              height="36" fill="white">
            <use xlink:href="#path-1"></use>
        </mask>
    </defs>
    <use id="Oval-71-Copy-10" stroke="#5C7DEC" mask="url(#mask-2)" stroke-width="2" fill="#FFFFFF" fill-rule="evenodd"
         xlink:href="#path-1"></use>
    <path d="M354.240375,199 C355.53375,196.9075 356.25,194.477125 356.25,192.0775 C356.25,191.02 356.14125,189.985 355.875,188.98375 C355.68,188.29375 355.114125,187.75 354.375,187.75 C353.929125,187.75 353.52375,187.945 353.25,188.256625 L353.25,188.125 C353.25,187.29625 352.57875,186.625 351.75,186.625 C350.92125,186.625 350.25,187.29625 350.25,188.125 L350.25,187.375 C350.25,186.54625 349.57875,185.875 348.75,185.875 C347.92125,185.875 347.25,186.54625 347.25,187.375 L347.25,182.5 C347.25,181.67125 346.57875,181 345.75,181 C344.92125,181 344.25,181.67125 344.25,182.5 L344.25,191.054125 C344.25,191.47 343.9125,191.804125 343.5,191.804125 C343.42875,191.804125 343.36125,191.792875 343.29375,191.774125 L341.175,190.911625 C340.9725,190.81 340.74375,190.75 340.5,190.75 C339.67125,190.75 339,191.42125 339,192.25 C339,192.8725 339.3825,193.40875 339.9225,193.6375 C342.35625,194.89375 344.30625,196.435 345.67125,199 L354.240375,199 L354.240375,199 Z"
          id="Shape" stroke="none" fill="#5B97FF" fill-rule="evenodd"></path>
</svg>
