<svg width="44" height="44" xmlns="http://www.w3.org/2000/svg"><g fill-rule="nonzero"><path d="M22.636 6.875c6.277 0 11.434 4.709 11.844 10.69 2.61.814 4.478 3.186 4.478 5.963 0 3.472-2.905 6.264-6.463 6.264l-5.912-.001V27.5h1.834c1.633 0 2.451-1.975 1.296-3.13l-6.417-6.416a1.833 1.833 0 00-2.592 0l-6.417 6.416c-1.155 1.155-.337 3.13 1.296 3.13h1.834l-.001 2.291h-4.32c-4.437 0-8.054-3.475-8.054-7.791 0-3.764 2.763-6.92 6.457-7.638 1.698-4.445 6.112-7.487 11.137-7.487z"/><path d="M24.75 33.037L28.417 33 22 38.5 15.583 33h3.667v-7.333h-3.667L22 19.25l6.417 6.417H24.75z"/></g></svg>
