<svg width="44" height="44" xmlns="http://www.w3.org/2000/svg"><g fill-rule="evenodd"><path d="M33.895 19.481c.72 0 1.305.544 1.305 1.214v1.214c0 6.304-5.165 11.485-11.774 12.08v1.514h5.705c.67 0 1.214.544 1.214 1.214v1.517H13.959v-1.517c0-.67.543-1.214 1.213-1.214h5.705V33.99c-6.608-.596-11.774-5.778-11.774-12.081v-1.214c0-.67.585-1.214 1.305-1.214s1.305.544 1.305 1.214v1.214c0 5.363 4.674 9.71 10.439 9.71s10.438-4.347 10.438-9.71v-1.214c0-.67.585-1.214 1.305-1.214zM22.152 5.462c4.525 0 8.193 3.804 8.193 8.497v6.675c0 4.693-3.668 8.497-8.193 8.497-4.525 0-8.193-3.804-8.193-8.497V13.96c0-4.693 3.668-8.497 8.193-8.497z"/></g></svg>
