<svg width="44" height="44" xmlns="http://www.w3.org/2000/svg"><g fill-rule="evenodd"><path d="M15.341 23.84l1.43 1.404a.637.637 0 00-.176.08l-.1.083-5.336 5.335a.642.642 0 00.807.988l.101-.082 5.335-5.335a.636.636 0 00.165-.288l1.041 1.026a.706.706 0 00-.183.077l-.116.092-5.335 5.335a.642.642 0 00.79 1l.116-.092 5.335-5.335a.636.636 0 00.172-.312l1.441 1.417-5.1 5.102a3.85 3.85 0 01-5.44 0 3.85 3.85 0 010-5.44l5.055-5.056h-.002zM19.5 9.887c1.907 1.906 2.451 4.66 1.65 7.086L34.025 29.85a3.208 3.208 0 010 4.534 3.208 3.208 0 01-4.534 0L16.615 21.509c-2.425.803-5.182.257-7.087-1.65-2.017-2.016-2.512-4.992-1.49-7.516.113-.283.613-.615 1.118-.11l3.63 3.63c.237.237.56.369.896.364l.917-.007a1.302 1.302 0 001.281-1.281l.008-.917a1.247 1.247 0 00-.365-.897L11.88 9.483c-.477-.477-.128-1.009.174-1.128 2.512-.99 5.46-.491 7.462 1.513l-.017.02zm11.404 21.376a1.27 1.27 0 00-.015 1.797 1.271 1.271 0 001.797-.015c.498-.5.507-1.305.014-1.796a1.271 1.271 0 00-1.796.014zm-11.32-11.55l-.159.134-.015.015c-.43.436-.48 1.12-.117 1.613l.134.154 8.158 8.023c.453.445 1.152.49 1.654.134l.16-.134.014-.015c.43-.436.48-1.12.117-1.613l-.133-.154-8.159-8.023a1.294 1.294 0 00-1.653-.134zM34.227 8.375l2.04 2.039a.642.642 0 01.107.763l-1.692 3.08c-.181.33-.5.564-.869.64l-3.007.751-3.714 3.713-1.828-1.797 3.73-3.727c.252-.778.503-1.779.751-3.007.075-.37.31-.687.64-.869l3.08-1.692a.642.642 0 01.762.108v-.002z" fill-rule="nonzero"/></g></svg>
