<?xml version="1.0" encoding="UTF-8"?>
<svg width="36px" height="36px" viewBox="0 0 36 36" version="1.1" xmlns="http://www.w3.org/2000/svg" xmlns:xlink="http://www.w3.org/1999/xlink">
    <title>icn_block_microbit_buzzer_nor</title>
    <g id="编组" transform="translate(6.000000, 5.044593)">
        <path d="M0,17.9554066 L0,7.95540661 C-1.3527075e-16,6.85083711 0.8954305,5.95540661 2,5.95540661 L5,5.95540661 L5,5.95540661 L12.3860594,0.210693752 C12.8220066,-0.128376287 13.4502822,-0.0498418365 13.7893522,0.386105355 C13.9258778,0.561638237 14,0.777670105 14,1.00004597 L14,24.9107672 C14,25.463052 13.5522847,25.9107672 13,25.9107672 C12.7776241,25.9107672 12.5615923,25.836645 12.3860594,25.7001195 L5,19.9554066 L5,19.9554066 L2,19.9554066 C0.8954305,19.9554066 1.3527075e-16,19.0599761 0,17.9554066 Z M22.402788,4.81905323 C24.6778081,6.89005679 26,9.81760111 26,12.9554066 C26,16.0808239 24.6882814,18.9979023 22.4288898,21.0679225 C22.0216731,21.4410083 21.389113,21.4133397 21.0160272,21.006123 C20.6429414,20.5989063 20.67061,19.9663461 21.0778267,19.5932604 C22.9279389,17.8982157 24,15.514102 24,12.9554066 C24,10.3865813 22.9193671,7.9938872 21.0564449,6.2980259 C20.6480379,5.92624351 20.6183477,5.29377503 20.9901301,4.885368 C21.3619125,4.47696097 21.994381,4.44727084 22.402788,4.81905323 Z M18.5810115,7.6624236 C20.1059249,8.98320919 21,10.8979422 21,12.9554066 C21,15.0419216 20.0803793,16.9809022 18.5182068,18.3021444 C18.0965208,18.6587947 17.4655547,18.6060729 17.1089044,18.184387 C16.7522541,17.762701 16.8049759,17.1317349 17.2266619,16.7750846 C18.3441783,15.8299202 19,14.4471484 19,12.9554066 C19,11.484392 18.3624422,10.1190113 17.2716068,9.17419718 C16.8541421,8.81261506 16.8088402,8.1810728 17.1704224,7.76360805 C17.5320045,7.3461433 18.1635467,7.30084148 18.5810115,7.6624236 Z" id="形状结合"></path>
    </g>
</svg>