<svg width="44" height="44" xmlns="http://www.w3.org/2000/svg"><g fill-rule="evenodd"><path d="M24.954 28.578c.646 0 1.172.56 1.172 1.254v3.134c0 .692-.524 1.254-1.172 1.254h-2.929c-.588 0-1.075-.464-1.16-1.068l-.012-.188V29.83c0-.691.524-1.254 1.172-1.254h2.929v.002zm10.54 0c.647 0 1.173.56 1.173 1.254v3.134c0 .692-.524 1.254-1.172 1.254h-2.929c-.646 0-1.172-.56-1.172-1.254v-3.134c0-.692.524-1.254 1.172-1.254h2.929zm-15.81-18.8c.646 0 1.171.56 1.171 1.254v3.134c0 .692-.523 1.254-1.172 1.254h-5.855v5.64h4.153c.646 0 1.172.56 1.172 1.254v3.134c0 .692-.524 1.254-1.172 1.254h-4.153v6.266c0 .692-.524 1.254-1.172 1.254H9.727c-.646 0-1.171-.56-1.171-1.254V11.034c0-.692.523-1.254 1.171-1.254h9.956v-.002zm10.54 13.16c.647 0 1.172.56 1.172 1.254v3.134c0 .692-.523 1.254-1.172 1.254h-2.928c-.589 0-1.075-.464-1.16-1.068l-.012-.188V24.19c0-.692.523-1.254 1.172-1.254h2.928v.002zm-5.27-5.64c.646 0 1.172.56 1.172 1.254v3.134c0 .63-.434 1.15-.998 1.24l-.176.014h-2.929c-.646 0-1.171-.56-1.171-1.254v-3.134c0-.692.523-1.254 1.171-1.254h2.93zm10.54 0c.647 0 1.173.56 1.173 1.254v3.134c0 .692-.524 1.254-1.172 1.254h-2.929c-.646 0-1.172-.56-1.172-1.254v-3.134c0-.692.524-1.254 1.172-1.254h2.929z" fill-rule="nonzero"/></g></svg>
