<svg width="44" height="44" xmlns="http://www.w3.org/2000/svg"><g fill-rule="evenodd"><path d="M36.879 15.515c2.462 5.597 3.493 9.657 3.092 14.672-.802 4.866-3.591 5.701-7.199 2.508-.892-1.007-6.069-5.385-7.282-5.385h-7.096c-1.213 0-6.577 4.378-7.47 5.385-3.607 3.193-6.397 2.358-7.198-2.508-.401-5.015.63-9.075 3.092-14.672 1.946-4.016 4.523-5.397 7.73-4.143 2.984 1.03 5.41 2.283 7.3 2.283 1.89 0 4.317-1.252 7.3-2.283 3.207-1.254 5.784.127 7.731 4.143zm-22.313-.04a1.82 1.82 0 00-1.821 1.822v.91h-.92a1.82 1.82 0 100 3.641h.92v.91a1.82 1.82 0 003.641 0v-.91h.932a1.82 1.82 0 000-3.641h-.932v-.91a1.82 1.82 0 00-1.82-1.821zm18.206 5.463a1.82 1.82 0 100 3.641 1.82 1.82 0 000-3.641zm-3.641-4.552a1.82 1.82 0 100 3.642 1.82 1.82 0 000-3.642z" fill-rule="nonzero"/></g></svg>
