<svg width="44" height="44" xmlns="http://www.w3.org/2000/svg"><g fill-rule="evenodd"><path d="M32.772 7.283a3.641 3.641 0 013.642 3.641v21.848a3.641 3.641 0 01-3.642 3.642H10.924a3.641 3.641 0 01-3.641-3.642V10.924a3.641 3.641 0 013.641-3.641h21.848zM29.417 30.04h-2.294a1.324 1.324 0 102.294 0zm-10.723-5.039a.91.91 0 00-1.287 0l-1.931 1.93-1.931-1.93a.91.91 0 10-1.288 1.288l1.931 1.93-1.93 1.932a.91.91 0 101.287 1.287l1.93-1.931 1.932 1.931a.91.91 0 001.287-1.287l-1.93-1.932 1.93-1.93a.91.91 0 000-1.288zm13.168 2.308H24.58a.91.91 0 000 1.821h7.283a.91.91 0 000-1.82zm-3.592-2.73a1.324 1.324 0 00-1.147 1.986h2.294a1.324 1.324 0 00-1.147-1.986zM15.476 10.923a.91.91 0 00-.91.91v2.731h-2.732a.91.91 0 000 1.821h2.731v2.731a.91.91 0 001.821 0v-2.73h2.731a.91.91 0 000-1.821h-2.73v-2.732a.91.91 0 00-.911-.91zm16.386 3.642H24.58a.91.91 0 000 1.82h7.283a.91.91 0 000-1.82z"/></g></svg>
