<svg width="44" height="44" xmlns="http://www.w3.org/2000/svg"><path d="M18.814 7.283c6.033 0 10.924 4.926 10.924 10.986v15.943c0 1.216-.97 2.202-2.185 2.202-1.207 0-1.8-.61-2.134-1.778-.335-1.169-1.175-1.973-2.149-1.973-.973 0-1.9.751-2.22 1.973-.322 1.221-1.021 1.778-2.236 1.778-1.147 0-1.75-.445-2.084-1.591l-.05-.187c-.322-1.285-1.112-1.973-2.149-1.973s-1.876.735-2.221 1.973c-.345 1.238-1.02 1.778-2.236 1.778a2.183 2.183 0 01-2.184-2.202V18.269c0-6.067 4.903-10.986 10.924-10.986zM39.752 29.13a.91.91 0 110 1.82h-8.193v-1.82h8.193zm-1.821-5.462a.91.91 0 010 1.82h-6.372v-1.82h6.372zm-24.58-9.103a3.642 3.642 0 00-3.636 3.448l-.005.193a1.82 1.82 0 11.006.15l-.004-.088.003.131a3.642 3.642 0 103.637-3.834zm10.925 0a3.642 3.642 0 00-3.636 3.448l-.006.193a1.82 1.82 0 11.007.15l-.005-.088.004.131a3.642 3.642 0 103.636-3.834zm15.476 3.64a.91.91 0 110 1.822h-8.193v-1.821h8.193z" fill-rule="nonzero"/></svg>
