<svg width="44" height="44" xmlns="http://www.w3.org/2000/svg"><g fill-rule="evenodd"><path d="M32.418 10.247c1.2.687 3.559 2.246 7.076 4.679.558.386.726 1.132.385 1.716l-2.702 4.637a1.32 1.32 0 01-1.754.498l-2.608-1.376v14.192c-.043.91-.65 1.82-1.863 1.82H12.745c-.91 0-1.82-.91-1.82-1.82l.014-14.223-2.669 1.407c-.624.33-1.4.11-1.753-.498l-2.7-4.632a1.293 1.293 0 01.39-1.72c3.759-2.574 6.204-4.185 7.336-4.833a7.418 7.418 0 013.927-.988 6.551 6.551 0 00-.008.306c0 3.591 2.939 6.503 6.563 6.503 3.625 0 6.563-2.912 6.563-6.503 0-.098-.002-.195-.006-.291a8.534 8.534 0 013.836 1.126z" /></g></svg>
