<?xml version="1.0" encoding="UTF-8"?>
<svg width="36px" height="36px" viewBox="0 0 36 36" version="1.1" xmlns="http://www.w3.org/2000/svg" xmlns:xlink="http://www.w3.org/1999/xlink">
            <g id="编组-7" transform="translate(3.000000, 8.000000)" fill-rule="nonzero">
                <path d="M20,0 C25.5228475,0 30,4.4771525 30,10 C30,15.5228475 25.5228475,20 20,20 L10,20 C4.4771525,20 0,15.5228475 0,10 C0,4.4771525 4.4771525,0 10,0 L20,0 Z M20,4 L10,4 C6.6862915,4 4,6.6862915 4,10 C4,13.2383969 6.56557489,15.8775718 9.77506174,15.9958615 L10,16 L20,16 C23.3137085,16 26,13.3137085 26,10 C26,6.76160306 23.4344251,4.12242824 20.2249383,4.00413847 L20,4 Z M9.5,7.5 C10.8807119,7.5 12,8.61928813 12,10 C12,11.3807119 10.8807119,12.5 9.5,12.5 C8.11928813,12.5 7,11.3807119 7,10 C7,8.61928813 8.11928813,7.5 9.5,7.5 Z M20.5,7.5 C21.8807119,7.5 23,8.61928813 23,10 C23,11.3807119 21.8807119,12.5 20.5,12.5 C19.1192881,12.5 18,11.3807119 18,10 C18,8.61928813 19.1192881,7.5 20.5,7.5 Z" id="形状结合"></path>
            </g>
</svg>