<svg width="44" height="44" xmlns="http://www.w3.org/2000/svg"><g fill-rule="evenodd"><path d="M15.172 20.028c.67 0 1.214.543 1.214 1.213V31.56c0 .67-.543 1.213-1.214 1.213h-4.855c-.67 0-1.214-.543-1.214-1.213V21.24c0-.67.544-1.213 1.214-1.213h4.855zm9.104-10.925c.67 0 1.214.544 1.214 1.214V31.56c0 .67-.544 1.213-1.214 1.213h-4.79c-.671 0-1.215-.543-1.215-1.213V10.317c0-.67.544-1.214 1.214-1.214h4.79zm9.103 5.463c.67 0 1.214.543 1.214 1.213v15.78c0 .67-.543 1.213-1.214 1.213h-4.855c-.67 0-1.214-.543-1.214-1.213v-15.78c0-.67.544-1.213 1.214-1.213h4.855z"/></g></svg>
