<?xml version="1.0" encoding="UTF-8"?>
<svg width="40px" height="40px" viewBox="0 0 40 40" version="1.1" xmlns="http://www.w3.org/2000/svg" xmlns:xlink="http://www.w3.org/1999/xlink">
    <title>切片</title>
    <g id="硬件连接" stroke="none" stroke-width="1" fill="none" fill-rule="evenodd">
        <g id="积木图标" transform="translate(-211.000000, -30.000000)">
            <g id="事件_2" transform="translate(206.000000, 25.000000)">
                <g id="icn_block_mmicrobit_event_hand" transform="translate(5.000000, 5.000000)">
                    <circle id="path-1" fill="#257E8C" cx="20" cy="20" r="20"></circle>
                    <circle id="path-1" fill="#FFFFFF" fill-rule="nonzero" cx="20" cy="20" r="18.8888889"></circle>
                    <path d="M26.6883333,30 C28.1045893,27.675 28.8888889,24.9745833 28.8888889,22.3083333 C28.8888889,21.1333333 28.7698068,19.9833333 28.4782609,18.8708333 C28.2647343,18.1041667 27.6450967,17.5 26.8357488,17.5 C26.3475121,17.5 25.9036232,17.7166667 25.6038648,18.0629167 L25.6038648,17.9166667 C25.6038648,16.9958333 24.8688406,16.25 23.9613527,16.25 C23.0538648,16.25 22.3188406,16.9958333 22.3188406,17.9166667 L22.3188406,17.0833333 C22.3188406,16.1625 21.5838164,15.4166667 20.6763286,15.4166667 C19.7688406,15.4166667 19.0338164,16.1625 19.0338164,17.0833333 L19.0338164,11.6666667 C19.0338164,10.7458333 18.2987922,10 17.3913043,10 C16.4838164,10 15.7487922,10.7458333 15.7487922,11.6666667 L15.7487922,21.17125 C15.7487922,21.6333333 15.379227,22.0045833 14.9275362,22.0045833 C14.8495169,22.0045833 14.7756039,21.9920833 14.7016908,21.97125 L12.3816426,21.0129167 C12.1599033,20.9 11.9094203,20.8333333 11.6425121,20.8333333 C10.7350241,20.8333333 10,21.5791667 10,22.5 C10,23.1916667 10.4188406,23.7875 11.0101449,24.0416667 C13.6751208,25.4375 15.8103864,27.15 17.3050724,30 L26.6883333,30 Z" id="Shape" fill="#37AFC3"></path>
                </g>
            </g>
        </g>
    </g>
</svg>

