<?xml version="1.0" encoding="UTF-8"?>
<svg width="36px" height="36px" viewBox="0 0 36 36" version="1.1" xmlns="http://www.w3.org/2000/svg" xmlns:xlink="http://www.w3.org/1999/xlink">
    <title>icn_block_microbit_pin_act</title>
    <g id="硬件连接" stroke="none" stroke-width="1" fill="none" fill-rule="evenodd">
        <g id="积木图标" transform="translate(-103.000000, -137.000000)">
            <g id="icn/36/积木类别/microbit_pin" transform="translate(103.000000, 137.000000)">
                <rect id="Rectangle-23" x="0" y="0" width="36" height="36"></rect>
                <path d="M11.25,27.296 L11.25,31 C11.25,31.5522847 10.8022847,32 10.25,32 L8,32 C7.44771525,32 7,31.5522847 7,31 L7,27.25 L7,27.25 L11.25,27.296 Z M17,27.296 L17,31 C17,31.5522847 16.5522847,32 16,32 L13.75,32 C13.1977153,32 12.75,31.5522847 12.75,31 L12.75,27.296 L12.75,27.296 L17,27.296 Z M23.25,27.296 L23.25,31 C23.25,31.5522847 22.8022847,32 22.25,32 L19.75,32 C19.1977153,32 18.75,31.5522847 18.75,31 L18.75,27.296 L18.75,27.296 L23.25,27.296 Z M29,27.25 L29,31 C29,31.5522847 28.5522847,32 28,32 L25.75,32 C25.1977153,32 24.75,31.5522847 24.75,31 L24.75,27.296 L24.75,27.296 L29,27.25 Z M18,4.5 C24.0751322,4.5 29,8.9771525 29,14.5 L29,25.75 L7,25.75 L7,14.5 C7,8.9771525 11.9248678,4.5 18,4.5 Z M18,8.5 C14.3549207,8.5 11.4,11.4101491 11.4,15 C11.4,18.5898509 14.3549207,21.5 18,21.5 C21.6450793,21.5 24.6,18.5898509 24.6,15 C24.6,11.4101491 21.6450793,8.5 18,8.5 Z" id="形状" fill="#FFFFFF"></path>
            </g>
        </g>
    </g>
</svg>