<?xml version="1.0" encoding="UTF-8"?>
<svg width="36px" height="36px" viewBox="0 0 36 36" version="1.1" xmlns="http://www.w3.org/2000/svg" xmlns:xlink="http://www.w3.org/1999/xlink">
    <title>icn_block_microbit_led_act</title>
    <g id="硬件连接" stroke="none" stroke-width="1" fill="none" fill-rule="evenodd">
        <g id="积木图标" transform="translate(-103.000000, -89.000000)">
            <g id="icn/36/积木类别/microbit_LED" transform="translate(103.000000, 89.000000)">
                <rect id="Rectangle-23" x="0" y="0" width="36" height="36"></rect>
                <path d="M16.9166667,10.4166667 L19.0833333,10.4166667 C19.6816418,10.4166667 20.1666667,10.9016915 20.1666667,11.5 L20.1666667,13.6666667 C20.1666667,14.2649751 19.6816418,14.75 19.0833333,14.75 L16.9166667,14.75 C16.3183582,14.75 15.8333333,14.2649751 15.8333333,13.6666667 L15.8333333,11.5 C15.8333333,10.9016915 16.3183582,10.4166667 16.9166667,10.4166667 Z M16.9166667,15.8333333 L19.0833333,15.8333333 C19.6816418,15.8333333 20.1666667,16.3183582 20.1666667,16.9166667 L20.1666667,19.0833333 C20.1666667,19.6816418 19.6816418,20.1666667 19.0833333,20.1666667 L16.9166667,20.1666667 C16.3183582,20.1666667 15.8333333,19.6816418 15.8333333,19.0833333 L15.8333333,16.9166667 C15.8333333,16.3183582 16.3183582,15.8333333 16.9166667,15.8333333 Z M16.9166667,21.25 L19.0833333,21.25 C19.6816418,21.25 20.1666667,21.7350249 20.1666667,22.3333333 L20.1666667,24.5 C20.1666667,25.0983085 19.6816418,25.5833333 19.0833333,25.5833333 L16.9166667,25.5833333 C16.3183582,25.5833333 15.8333333,25.0983085 15.8333333,24.5 L15.8333333,22.3333333 C15.8333333,21.7350249 16.3183582,21.25 16.9166667,21.25 Z M16.9166667,26.6666667 L19.0833333,26.6666667 C19.6816418,26.6666667 20.1666667,27.1516915 20.1666667,27.75 L20.1666667,29.9166667 C20.1666667,30.5149751 19.6816418,31 19.0833333,31 L16.9166667,31 C16.3183582,31 15.8333333,30.5149751 15.8333333,29.9166667 L15.8333333,27.75 C15.8333333,27.1516915 16.3183582,26.6666667 16.9166667,26.6666667 Z M11.5,5 L13.6666667,5 C14.2649751,5 14.75,5.48502485 14.75,6.08333333 L14.75,8.25 C14.75,8.84830848 14.2649751,9.33333333 13.6666667,9.33333333 L11.5,9.33333333 C10.9016915,9.33333333 10.4166667,8.84830848 10.4166667,8.25 L10.4166667,6.08333333 C10.4166667,5.48502485 10.9016915,5 11.5,5 Z M11.5,10.4166667 L13.6666667,10.4166667 C14.2649751,10.4166667 14.75,10.9016915 14.75,11.5 L14.75,13.6666667 C14.75,14.2649751 14.2649751,14.75 13.6666667,14.75 L11.5,14.75 C10.9016915,14.75 10.4166667,14.2649751 10.4166667,13.6666667 L10.4166667,11.5 C10.4166667,10.9016915 10.9016915,10.4166667 11.5,10.4166667 Z M11.5,15.8333333 L13.6666667,15.8333333 C14.2649751,15.8333333 14.75,16.3183582 14.75,16.9166667 L14.75,19.0833333 C14.75,19.6816418 14.2649751,20.1666667 13.6666667,20.1666667 L11.5,20.1666667 C10.9016915,20.1666667 10.4166667,19.6816418 10.4166667,19.0833333 L10.4166667,16.9166667 C10.4166667,16.3183582 10.9016915,15.8333333 11.5,15.8333333 Z M11.5,21.25 L13.6666667,21.25 C14.2649751,21.25 14.75,21.7350249 14.75,22.3333333 L14.75,24.5 C14.75,25.0983085 14.2649751,25.5833333 13.6666667,25.5833333 L11.5,25.5833333 C10.9016915,25.5833333 10.4166667,25.0983085 10.4166667,24.5 L10.4166667,22.3333333 C10.4166667,21.7350249 10.9016915,21.25 11.5,21.25 Z M22.3333333,5 L24.5,5 C25.0983085,5 25.5833333,5.48502485 25.5833333,6.08333333 L25.5833333,8.25 C25.5833333,8.84830848 25.0983085,9.33333333 24.5,9.33333333 L22.3333333,9.33333333 C21.7350249,9.33333333 21.25,8.84830848 21.25,8.25 L21.25,6.08333333 C21.25,5.48502485 21.7350249,5 22.3333333,5 Z M22.3333333,10.4166667 L24.5,10.4166667 C25.0983085,10.4166667 25.5833333,10.9016915 25.5833333,11.5 L25.5833333,13.6666667 C25.5833333,14.2649751 25.0983085,14.75 24.5,14.75 L22.3333333,14.75 C21.7350249,14.75 21.25,14.2649751 21.25,13.6666667 L21.25,11.5 C21.25,10.9016915 21.7350249,10.4166667 22.3333333,10.4166667 Z M22.3333333,15.8333333 L24.5,15.8333333 C25.0983085,15.8333333 25.5833333,16.3183582 25.5833333,16.9166667 L25.5833333,19.0833333 C25.5833333,19.6816418 25.0983085,20.1666667 24.5,20.1666667 L22.3333333,20.1666667 C21.7350249,20.1666667 21.25,19.6816418 21.25,19.0833333 L21.25,16.9166667 C21.25,16.3183582 21.7350249,15.8333333 22.3333333,15.8333333 Z M22.3333333,21.25 L24.5,21.25 C25.0983085,21.25 25.5833333,21.7350249 25.5833333,22.3333333 L25.5833333,24.5 C25.5833333,25.0983085 25.0983085,25.5833333 24.5,25.5833333 L22.3333333,25.5833333 C21.7350249,25.5833333 21.25,25.0983085 21.25,24.5 L21.25,22.3333333 C21.25,21.7350249 21.7350249,21.25 22.3333333,21.25 Z M6.08333333,10.4166667 L8.25,10.4166667 C8.84830848,10.4166667 9.33333333,10.9016915 9.33333333,11.5 L9.33333333,13.6666667 C9.33333333,14.2649751 8.84830848,14.75 8.25,14.75 L6.08333333,14.75 C5.48502485,14.75 5,14.2649751 5,13.6666667 L5,11.5 C5,10.9016915 5.48502485,10.4166667 6.08333333,10.4166667 Z M6.08333333,15.8333333 L8.25,15.8333333 C8.84830848,15.8333333 9.33333333,16.3183582 9.33333333,16.9166667 L9.33333333,19.0833333 C9.33333333,19.6816418 8.84830848,20.1666667 8.25,20.1666667 L6.08333333,20.1666667 C5.48502485,20.1666667 5,19.6816418 5,19.0833333 L5,16.9166667 C5,16.3183582 5.48502485,15.8333333 6.08333333,15.8333333 Z M27.75,10.4166667 L29.9166667,10.4166667 C30.5149751,10.4166667 31,10.9016915 31,11.5 L31,13.6666667 C31,14.2649751 30.5149751,14.75 29.9166667,14.75 L27.75,14.75 C27.1516915,14.75 26.6666667,14.2649751 26.6666667,13.6666667 L26.6666667,11.5 C26.6666667,10.9016915 27.1516915,10.4166667 27.75,10.4166667 Z M27.75,15.8333333 L29.9166667,15.8333333 C30.5149751,15.8333333 31,16.3183582 31,16.9166667 L31,19.0833333 C31,19.6816418 30.5149751,20.1666667 29.9166667,20.1666667 L27.75,20.1666667 C27.1516915,20.1666667 26.6666667,19.6816418 26.6666667,19.0833333 L26.6666667,16.9166667 C26.6666667,16.3183582 27.1516915,15.8333333 27.75,15.8333333 Z" id="形状结合" fill="#FFFFFF"></path>
            </g>
        </g>
    </g>
</svg>