<?xml version="1.0" encoding="UTF-8"?>
<svg width="36px" height="36px" viewBox="0 0 36 36" version="1.1" xmlns="http://www.w3.org/2000/svg" xmlns:xlink="http://www.w3.org/1999/xlink">
    <title>icn_block_microbit_servos_act</title>
    <g id="硬件连接" stroke="none" stroke-width="1" fill="none" fill-rule="evenodd">
        <g id="积木图标" transform="translate(-103.000000, -185.000000)">
            <g id="icn/36/积木类别/microbit_servos" transform="translate(103.000000, 185.000000)">
                <rect id="Rectangle-23" x="0" y="0" width="36" height="36"></rect>
                <g id="编组" transform="translate(5.500000, 6.000000)" fill="#FFFFFF">
                    <path d="M12,3.02840193e-14 C16.9381208,3.11911374e-14 21.1795813,2.98275764 23.0209992,7.24489066 L11.768176,6.0357761 C11.5463898,6.01194331 11.3234304,6 11.1003029,6 C7.73119864,6 5,8.66460251 5,11.9515563 C5,12.1692431 5.01224181,12.386766 5.03667024,12.6031443 C5.40552638,15.8703395 8.41932417,18.2271986 11.768176,17.8673365 L23.0641866,16.6538675 C21.2465467,20.9699331 16.9771284,24 12,24 C5.372583,24 2.13162821e-14,18.627417 2.13162821e-14,12 C2.48689958e-14,5.372583 5.372583,2.90665826e-14 12,3.02840193e-14 Z M11.3048108,7.74515126 C11.46077,7.74515126 11.6166139,7.75362663 11.7716532,7.77053988 L26.6141734,9.38971112 C27.9717319,9.53780724 29,10.6843496 29,12.0499621 C29,13.4155746 27.9717319,14.562117 26.6141734,14.7102131 L11.7716532,16.3293843 C9.40819359,16.5872143 7.28321854,14.8802641 7.02538862,12.5168045 C7.00847537,12.3617652 7,12.2059212 7,12.0499621 C7,9.67248073 8.92732947,7.74515126 11.3048108,7.74515126 Z M11.5,9.5 C10.1192881,9.5 9,10.6192881 9,12 C9,13.3807119 10.1192881,14.5 11.5,14.5 C12.8807119,14.5 14,13.3807119 14,12 C14,10.6192881 12.8807119,9.5 11.5,9.5 Z" id="形状结合"></path>
                </g>
            </g>
        </g>
    </g>
</svg>